  0
SECTION
  2
HEADER
  9
$ACADVER
  1
AC1009
  9
$INSBASE
 10
0.0
 20
0.0
 30
0.0
  9
$EXTMIN
 10
-1.426757786221287
 20
-0.6292419231371511
 30
-0.0015258207003583
  9
$EXTMAX
 10
0.9279785306751477
 20
0.9383697625463476
 30
0.0000000349246037
  9
$LIMMIN
 10
0.0
 20
0.0
  9
$LIMMAX
 10
17.0
 20
11.0
  9
$ORTHOMODE
 70
     1
  9
$REGENMODE
 70
     1
  9
$FILLMODE
 70
     1
  9
$QTEXTMODE
 70
     0
  9
$MIRRTEXT
 70
     0
  9
$DRAGMODE
 70
     2
  9
$LTSCALE
 40
1.0
  9
$OSMODE
 70
   695
  9
$ATTMODE
 70
     1
  9
$TEXTSIZE
 40
0.2
  9
$TRACEWID
 40
0.05
  9
$TEXTSTYLE
  7
STANDARD
  9
$CLAYER
  8
0
  9
$CELTYPE
  6
BYLAYER
  9
$CECOLOR
 62
   256
  9
$DIMSCALE
 40
1.0
  9
$DIMASZ
 40
0.12
  9
$DIMEXO
 40
0.05
  9
$DIMDLI
 40
0.5
  9
$DIMRND
 40
0.0
  9
$DIMDLE
 40
0.0
  9
$DIMEXE
 40
0.1
  9
$DIMTP
 40
0.1
  9
$DIMTM
 40
0.1
  9
$DIMTXT
 40
0.12
  9
$DIMCEN
 40
0.0
  9
$DIMTSZ
 40
0.0
  9
$DIMTOL
 70
     0
  9
$DIMLIM
 70
     0
  9
$DIMTIH
 70
     1
  9
$DIMTOH
 70
     1
  9
$DIMSE1
 70
     0
  9
$DIMSE2
 70
     0
  9
$DIMTAD
 70
     0
  9
$DIMZIN
 70
     7
  9
$DIMBLK
  1

  9
$DIMASO
 70
     1
  9
$DIMSHO
 70
     1
  9
$DIMPOST
  1

  9
$DIMAPOST
  1
mm
  9
$DIMALT
 70
     0
  9
$DIMALTD
 70
     2
  9
$DIMALTF
 40
25.399999999999999
  9
$DIMLFAC
 40
1.0
  9
$DIMTOFL
 70
     0
  9
$DIMTVP
 40
0.0
  9
$DIMTIX
 70
     0
  9
$DIMSOXD
 70
     0
  9
$DIMSAH
 70
     0
  9
$DIMBLK1
  1

  9
$DIMBLK2
  1

  9
$DIMSTYLE
  2
AM_ANSI
  9
$DIMCLRD
 70
   256
  9
$DIMCLRE
 70
   256
  9
$DIMCLRT
 70
     2
  9
$DIMTFAC
 40
0.71
  9
$DIMGAP
 40
0.06
  9
$LUNITS
 70
     2
  9
$LUPREC
 70
     4
  9
$SKETCHINC
 40
0.1
  9
$FILLETRAD
 40
0.0
  9
$AUNITS
 70
     0
  9
$AUPREC
 70
     0
  9
$MENU
  1
.
  9
$ELEVATION
 40
0.0
  9
$PELEVATION
 40
0.0
  9
$THICKNESS
 40
0.0
  9
$LIMCHECK
 70
     0
  9
$BLIPMODE
 70
     0
  9
$CHAMFERA
 40
0.125
  9
$CHAMFERB
 40
0.125
  9
$SKPOLY
 70
     0
  9
$TDCREATE
 40
2456056.248599757
  9
$TDUPDATE
 40
2456056.2516592592
  9
$TDINDWG
 40
0.0030600694
  9
$TDUSRTIMER
 40
0.0030600463
  9
$USRTIMER
 70
     1
  9
$ANGBASE
 50
0.0
  9
$ANGDIR
 70
     0
  9
$PDMODE
 70
     0
  9
$PDSIZE
 40
0.0
  9
$PLINEWID
 40
0.0
  9
$COORDS
 70
     1
  9
$SPLFRAME
 70
     0
  9
$SPLINETYPE
 70
     6
  9
$SPLINESEGS
 70
     8
  9
$ATTDIA
 70
     1
  9
$ATTREQ
 70
     1
  9
$HANDLING
 70
     1
  9
$HANDSEED
  5
40B
  9
$SURFTAB1
 70
     6
  9
$SURFTAB2
 70
     6
  9
$SURFTYPE
 70
     6
  9
$SURFU
 70
     6
  9
$SURFV
 70
     6
  9
$UCSNAME
  2

  9
$UCSORG
 10
0.0
 20
0.0
 30
0.0
  9
$UCSXDIR
 10
1.0
 20
0.0
 30
0.0
  9
$UCSYDIR
 10
0.0
 20
1.0
 30
0.0
  9
$PUCSNAME
  2

  9
$PUCSORG
 10
0.0
 20
0.0
 30
0.0
  9
$PUCSXDIR
 10
1.0
 20
0.0
 30
0.0
  9
$PUCSYDIR
 10
0.0
 20
1.0
 30
0.0
  9
$USERI1
 70
     0
  9
$USERI2
 70
     0
  9
$USERI3
 70
     0
  9
$USERI4
 70
     0
  9
$USERI5
 70
     0
  9
$USERR1
 40
0.0
  9
$USERR2
 40
0.0
  9
$USERR3
 40
0.0
  9
$USERR4
 40
0.0
  9
$USERR5
 40
0.0
  9
$WORLDVIEW
 70
     1
  9
$SHADEDGE
 70
     3
  9
$SHADEDIF
 70
    70
  9
$TILEMODE
 70
     1
  9
$MAXACTVP
 70
    64
  9
$PLIMCHECK
 70
     0
  9
$PEXTMIN
 10
0.0
 20
0.0
 30
0.0
  9
$PEXTMAX
 10
0.0
 20
0.0
 30
0.0
  9
$PLIMMIN
 10
0.0
 20
0.0
  9
$PLIMMAX
 10
12.0
 20
9.0
  9
$UNITMODE
 70
     0
  9
$VISRETAIN
 70
     1
  9
$PLINEGEN
 70
     0
  9
$PSLTSCALE
 70
     1
  0
ENDSEC
  0
SECTION
  2
TABLES
  0
TABLE
  2
VPORT
 70
     1
  0
VPORT
  2
*ACTIVE
 70
     0
 10
0.0
 20
0.0
 11
1.0
 21
1.0
 12
0.0021137984802593
 22
0.5642389243917095
 13
0.0
 23
0.0
 14
0.125
 24
0.125
 15
1.0
 25
1.0
 16
0.0
 26
0.0
 36
1.0
 17
0.0
 27
0.0
 37
0.0
 40
13.003334275115421
 41
1.4237668161434971
 42
50.0
 43
0.0
 44
0.0
 50
0.0
 51
0.0
 71
     0
 72
  1000
 73
     1
 74
     3
 75
     0
 76
     1
 77
     0
 78
     0
  0
ENDTAB
  0
TABLE
  2
LTYPE
 70
    17
  0
LTYPE
  2
CONTINUOUS
 70
     0
  3
Solid line
 72
    65
 73
     0
 40
0.0
  0
LTYPE
  2
HIDDEN
 70
     0
  3
Hidden __ __ __ __ __ __ __ __ __ __ __ __ __ _
 72
    65
 73
     2
 40
0.375
 49
0.25
 49
-0.125
  0
LTYPE
  2
PHANTOM2
 70
     0
  3
Phantom (.5x) ___ _ _ ___ _ _ ___ _ _ ___ _ _
 72
    65
 73
     6
 40
1.25
 49
0.625
 49
-0.125
 49
0.125
 49
-0.125
 49
0.125
 49
-0.125
  0
LTYPE
  2
CENTER
 70
     0
  3
Center ____ _ ____ _ ____ _ ____ _ ____ _ ____
 72
    65
 73
     4
 40
2.0
 49
1.25
 49
-0.25
 49
0.25
 49
-0.25
  0
LTYPE
  2
AM_ISO02W050
 70
     0
  3
__ __ __ __ __ __ __ __ __ __ __ __ __ __ __
 72
    65
 73
     2
 40
7.5
 49
6.0
 49
-1.5
  0
LTYPE
  2
AM_ISO08W050
 70
     0
  3
____ . ____ . ____ . ____ . ____ . ____ . ____
 72
    65
 73
     4
 40
18.0
 49
12.0
 49
-1.5
 49
3.0
 49
-1.5
  0
LTYPE
  2
AM_ISO09W050
 70
     0
  3
_____ . . _____ . . _____ . . ____ .. ____
 72
    65
 73
     6
 40
22.5
 49
12.0
 49
-1.5
 49
3.0
 49
-1.5
 49
3.0
 49
-1.5
  0
LTYPE
  2
AMCONSTR
 70
     0
  3
_______________________
 72
    65
 73
     2
 40
9999.0
 49
9999.0
 49
0.0
  0
LTYPE
  2
AM_ISO08W050X2
 70
     0
  3
__ . __ . __ . __ . __ . __
 72
    65
 73
     4
 40
9.0
 49
6.0
 49
-0.75
 49
1.5
 49
-0.75
  0
LTYPE
  2
AM_ISO02W050X2
 70
     0
  3
 _ _ _ _ _ _ _ _ _ _ _ _
 72
    65
 73
     2
 40
3.75
 49
3.0
 49
-0.75
  0
LTYPE
  2
AMZIGZAG
 70
     0
  3
/\/-/\/-/\/-/\/-/\/-/\/
 72
    65
 73
     2
 40
11.0001
 49
0.0001
 49
-11.0
  0
LTYPE
  2
CENTER2
 70
     0
  3
Center (.5x) ___ _ ___ _ ___ _ ___ _ ___ _ ___
 72
    65
 73
     4
 40
1.125
 49
0.75
 49
-0.125
 49
0.125
 49
-0.125
  0
LTYPE
  2
HIDDEN2
 70
     0
  3
Hidden (.5x) _ _ _ _ _ _ _ _ _ _ _ _ _ _ _ _ _
 72
    65
 73
     2
 40
0.1875
 49
0.125
 49
-0.0625
  0
LTYPE
  2
AMZIGZAG2
 70
     0
  3
/\/-/\/-/\/-/\/-/\/-/\/
 72
    65
 73
     2
 40
0.4401
 49
0.0001
 49
-0.4400000000000001
  0
LTYPE
  2
ACANSTGB
 70
     0
  3
__ . . __ . .
 72
    65
 73
     6
 40
0.35433070866
 49
0.15748031496
 49
-0.03937007874
 49
0.03937007874
 49
-0.03937007874
 49
0.03937007874
 49
-0.03937007874
  0
LTYPE
  2
ACANSTGL
 70
     0
  3
_ _ _ _ _
 72
    65
 73
     2
 40
0.11811023622
 49
0.07874015748
 49
-0.03937007874
  0
ENDTAB
  0
TABLE
  2
LAYER
 70
     2
  0
LAYER
  2
0
 70
     0
 62
     7
  6
CONTINUOUS
  0
LAYER
  2
FLOW_LABEL_POINTER
 70
     0
 62
     4
  6
CONTINUOUS
  0
ENDTAB
  0
TABLE
  2
STYLE
 70
    10
  0
STYLE
  2
STANDARD
 70
     0
 40
0.0
 41
1.0
 50
0.0
 71
     0
 42
0.2
  3
ROMANS.SHX
  4

  0
STYLE
  2
ANNOTATIVE
 70
     0
 40
0.0
 41
1.0
 50
0.0
 71
     0
 42
0.2
  3
txt
  4

  0
STYLE
  2

 70
     1
 40
0.0
 41
1.0
 50
0.0
 71
     0
 42
0.2
  3
genltshp.shx
  4

  0
STYLE
  2
ACANSTS
 70
     0
 40
1.0
 41
1.0
 50
0.0
 71
     0
 42
0.2
  3
romans.shx
  4

  0
STYLE
  2
ACANSGDT
 70
     0
 40
0.0
 41
1.0
 50
0.0
 71
     0
 42
0.2
  3
amgdt.shx
  4

  0
STYLE
  2
USER1
 70
     0
 40
0.0
 41
1.0
 50
0.0
 71
     0
 42
0.2
  3
TXT.SHX
  4

  0
STYLE
  2
USER2
 70
     0
 40
0.0
 41
1.0
 50
0.0
 71
     0
 42
0.2
  3
SIMPLEX.SHX
  4

  0
STYLE
  2
USER3
 70
     0
 40
0.0
 41
1.0
 50
0.0
 71
     0
 42
0.2
  3
ITALIC.SHX
  4

  0
STYLE
  2
NOTE
 70
     0
 40
0.3
 41
0.8
 50
0.0
 71
     0
 42
0.3
  3
txt
  4

  0
STYLE
  2
CAD
 70
     0
 40
0.0
 41
1.0
 50
0.0
 71
     0
 42
0.1875
  3
CAD.SHX
  4

  0
ENDTAB
  0
TABLE
  2
VIEW
 70
     0
  0
ENDTAB
  0
TABLE
  2
UCS
 70
     0
  0
ENDTAB
  0
TABLE
  2
APPID
 70
    18
  0
APPID
  2
ACAD
 70
     0
  0
APPID
  2
ACADANNOPO
 70
     0
  0
APPID
  2
ACADANNOTATIVE
 70
     0
  0
APPID
  2
ACAD_DSTYLE_DIMJAG
 70
     0
  0
APPID
  2
ACAD_DSTYLE_DIMTALN
 70
     0
  0
APPID
  2
ACAD_MLEADERVER
 70
     0
  0
APPID
  2
ACAD_NAV_VCDISPLAY
 70
     0
  0
APPID
  2
MCAD_NO_VIS
 70
     0
  0
APPID
  2
ACAD_TEMP_GRAPHIC
 70
     0
  0
APPID
  2
ACATTRIBSERVICES
 70
     0
  0
APPID
  2
DESIGNERASSEMBLIES
 70
     0
  0
APPID
  2
ACAD_DSTYLE_DIMBREAK
 70
     0
  0
APPID
  2
ACAD_PSEXT
 70
     0
  0
APPID
  2
ACAD_DSTYLE_DIMJOGGED_JOGA
 70
     0
  0
APPID
  2
AD_DRAW
 70
     0
  0
APPID
  2
ACADM_DIM_EDIT
 70
     0
  0
APPID
  2
AMDT_DM_ADJ
 70
     0
  0
APPID
  2
ACAD_EXEMPT_FROM_CAD_STANDARDS
 70
     0
  0
ENDTAB
  0
TABLE
  2
DIMSTYLE
 70
    10
  0
DIMSTYLE
  2
STANDARD
 70
     0
  3

  4

  5

  6

  7

 40
1.0
 41
0.18
 42
0.0625
 43
0.38
 44
0.18
 45
0.0
 46
0.0
 47
0.0
 48
0.0
140
0.18
141
0.09
142
0.0
143
25.399999999999999
144
1.0
145
0.0
146
1.0
147
0.09
 71
     0
 72
     0
 73
     1
 74
     1
 75
     0
 76
     0
 77
     0
 78
     0
170
     0
171
     2
172
     0
173
     0
174
     0
175
     0
176
     0
177
     0
178
     0
  0
DIMSTYLE
  2
ANNOTATIVE
 70
     0
  3

  4

  5

  6

  7

 40
0.0
 41
0.18
 42
0.0625
 43
0.38
 44
0.18
 45
0.0
 46
0.0
 47
0.0
 48
0.0
140
0.18
141
0.09
142
0.0
143
25.399999999999999
144
1.0
145
0.0
146
1.0
147
0.09
 71
     0
 72
     0
 73
     1
 74
     1
 75
     0
 76
     0
 77
     0
 78
     0
170
     0
171
     2
172
     0
173
     0
174
     0
175
     0
176
     0
177
     0
178
     0
  0
DIMSTYLE
  2
AM_ANSI
 70
     0
  3

  4
mm
  5

  6

  7

 40
1.0
 41
0.12
 42
0.05
 43
0.5
 44
0.1
 45
0.0
 46
0.0
 47
0.1
 48
0.1
140
0.12
141
0.0
142
0.0
143
25.399999999999999
144
1.0
145
0.0
146
0.71
147
0.06
 71
     0
 72
     0
 73
     1
 74
     1
 75
     0
 76
     0
 77
     0
 78
     7
170
     0
171
     2
172
     0
173
     0
174
     0
175
     0
176
   256
177
   256
178
     2
  0
DIMSTYLE
  2
AM_ANSI$3
 70
     0
  3

  4
mm
  5

  6

  7

 40
1.0
 41
0.12
 42
0.05
 43
0.5
 44
0.1
 45
0.0
 46
0.0
 47
0.1
 48
0.1
140
0.12
141
0.0
142
0.0
143
25.399999999999999
144
1.0
145
0.0
146
0.71
147
0.06
 71
     0
 72
     0
 73
     1
 74
     1
 75
     0
 76
     0
 77
     0
 78
     7
170
     0
171
     2
172
     0
173
     0
174
     0
175
     0
176
   256
177
   256
178
     2
  0
DIMSTYLE
  2
AM_ANSI$4
 70
     0
  3

  4
mm
  5

  6

  7

 40
1.0
 41
0.12
 42
0.05
 43
0.5
 44
0.1
 45
0.0
 46
0.0
 47
0.1
 48
0.1
140
0.12
141
0.0
142
0.0
143
25.399999999999999
144
1.0
145
0.0
146
0.71
147
0.06
 71
     0
 72
     0
 73
     1
 74
     1
 75
     0
 76
     0
 77
     0
 78
     7
170
     0
171
     2
172
     0
173
     0
174
     0
175
     0
176
   256
177
   256
178
     2
  0
DIMSTYLE
  2
AM_ANSI$7
 70
     0
  3

  4
mm
  5

  6

  7

 40
1.0
 41
0.12
 42
0.05
 43
0.5
 44
0.1
 45
0.0
 46
0.0
 47
0.1
 48
0.1
140
0.12
141
0.0
142
0.0
143
25.399999999999999
144
1.0
145
0.0
146
0.71
147
0.06
 71
     0
 72
     0
 73
     1
 74
     1
 75
     0
 76
     0
 77
     0
 78
     7
170
     0
171
     2
172
     0
173
     0
174
     0
175
     0
176
   256
177
   256
178
     2
  0
DIMSTYLE
  2
AM_ANSI$SF
 70
     0
  3

  4
mm
  5

  6

  7

 40
1.0
 41
0.12
 42
0.05
 43
0.5
 44
0.1
 45
0.0
 46
0.0
 47
0.1
 48
0.1
140
0.12
141
0.0
142
0.0
143
25.399999999999999
144
1.0
145
0.0
146
0.71
147
0.06
 71
     0
 72
     0
 73
     1
 74
     1
 75
     1
 76
     1
 77
     0
 78
     7
170
     0
171
     2
172
     0
173
     0
174
     0
175
     0
176
   256
177
   256
178
     2
  0
DIMSTYLE
  2
AM_ANSI$SH
 70
     0
  3

  4
mm
  5

  6
GENAXEH
  7

 40
1.0
 41
0.12
 42
0.05
 43
0.5
 44
0.1
 45
0.0
 46
0.0
 47
0.1
 48
0.1
140
0.12
141
0.0
142
0.0
143
25.399999999999999
144
1.0
145
0.0
146
0.71
147
0.06
 71
     0
 72
     0
 73
     1
 74
     1
 75
     1
 76
     1
 77
     0
 78
     7
170
     0
171
     2
172
     0
173
     1
174
     0
175
     0
176
   256
177
   256
178
     2
  0
DIMSTYLE
  2
64
 70
     0
  3

  4

  5

  6

  7

 40
64.0
 41
0.125
 42
0.0625
 43
0.375
 44
0.0625
 45
0.0
 46
0.0
 47
0.0
 48
0.0
140
0.125
141
0.0625
142
0.0
143
25.399999999999999
144
1.0
145
0.0
146
1.0
147
0.0625
 71
     0
 72
     0
 73
     0
 74
     0
 75
     0
 76
     0
 77
     1
 78
     3
170
     0
171
     2
172
     1
173
     0
174
     0
175
     0
176
   256
177
   256
178
   256
  0
ENDTAB
  0
ENDSEC
  0
SECTION
  2
BLOCKS
  0
BLOCK
  8
0
  2
$MODEL_SPACE
 70
     0
 10
0.0
 20
0.0
 30
0.0
  3
$MODEL_SPACE
  1

  0
ENDBLK
  5
21
  8
0
  0
BLOCK
 67
     1
  8
0
  2
$PAPER_SPACE
 70
     0
 10
0.0
 20
0.0
 30
0.0
  3
$PAPER_SPACE
  1

  0
ENDBLK
  5
5B
 67
     1
  8
0
  0
BLOCK
  8
0
  2
GENAXEH
 70
     0
 10
0.0
 20
0.0
 30
0.0
  3
GENAXEH
  1

  0
LINE
  5
1FF
  8
0
 10
-1.0
 20
0.0
 30
0.0
 11
1.0
 21
0.0
 31
0.0
  0
ENDBLK
  5
201
  8
0
  0
BLOCK
  8
0
  2
A$C62D370C6
 70
     0
 10
0.0
 20
0.0
 30
0.0
  3
A$C62D370C6
  1

  0
LINE
  5
21C
  8
0
 10
2.214910850445448
 20
-0.0000029870716389
 30
-0.0000000150370049
 11
2.214910850452724
 21
0.0213319252070505
 31
-0.0000000150370049
  0
LINE
  5
21D
  8
0
 10
2.352944791688059
 20
0.0213319252070505
 30
-0.0000000150370049
 11
2.3529447916807831
 21
-0.0000029870716389
 31
-0.0000000150370049
  0
LINE
  5
21E
  8
0
 10
2.352944791688059
 20
0.0213319252070505
 30
-0.0000000150370049
 11
2.352944791688059
 21
0.3260004645271692
 31
-0.0000000150370049
  0
LINE
  5
21F
  8
0
 10
1.71105532580259
 20
0.166182239248883
 30
0.0
 11
2.214910850452724
 21
0.1221005927654915
 31
0.0
  0
LINE
  5
220
  8
0
 10
0.9944153133037617
 20
0.3581852919305675
 30
-0.0000000001154163
 11
1.71119954639289
 21
0.1661235355131794
 31
-0.0000000000000225
  0
LINE
  5
221
  8
0
 10
0.2341924324500724
 20
0.7971001786645502
 30
-0.0000000002725251
 11
0.9944153133037617
 21
0.3581852919305675
 31
-0.0000000001154163
  0
LINE
  5
222
  8
0
 10
2.214910850452724
 20
0.1221005927654915
 30
-0.0000000150370049
 11
2.214910850452724
 21
0.0213319252070505
 31
-0.0000000150370049
  0
LINE
  5
223
  8
0
 10
2.214910850452724
 20
-0.0000029870716389
 30
-0.0000000000000019
 11
2.352944791688059
 21
-0.0000029870716389
 31
0.0000000000001468
  0
LINE
  5
224
  8
0
 10
0.4267627289591474
 20
0.8756031961820553
 30
-0.0000000002656081
 11
0.2341924324500724
 21
0.8756031961820553
 31
0.0
  0
LINE
  5
225
  8
0
 10
0.4218832984479377
 20
0.8573929136618971
 30
-0.0000000002690694
 11
0.2341924324500724
 21
0.8573929136618971
 31
0.0
  0
LINE
  5
226
  8
0
 10
1.7492241868312699
 20
0.3260004645271692
 30
0.0
 11
2.352944791688059
 21
0.3260004645271692
 31
0.0
  0
LINE
  5
227
  8
0
 10
1.7468267576623471
 20
0.3077901820652187
 30
0.0
 11
2.352944791688059
 21
0.3077901820652187
 31
0.0
  0
LINE
  5
228
  8
0
 10
1.057821458525722
 20
0.5112612672674004
 30
0.0
 11
1.7492241868312699
 21
0.3260004645271692
 31
0.0
  0
LINE
  5
229
  8
0
 10
1.0507925518395489
 20
0.4942919854656794
 30
0.0
 11
1.7468267576623471
 21
0.3077901820652187
 31
0.0
  0
LINE
  5
22A
  8
0
 10
0.4267627289591474
 20
0.8756031961820553
 30
-0.0000000002656081
 11
1.057821458525722
 21
0.5112612672674004
 31
-0.0000000000017479
  0
LINE
  5
22B
  8
0
 10
0.4218832984479377
 20
0.8573929136618971
 30
-0.0000000002690694
 11
1.0507925518395489
 21
0.4942919854656794
 31
-0.000000000000871
  0
LINE
  5
22C
  8
0
 10
0.2341924324500724
 20
0.8756031961820553
 30
0.0
 11
0.2341924324500724
 21
0.7971001786936541
 31
-0.0000000001909448
  0
LINE
  5
22D
  8
0
 10
2.3529447937689829
 20
0.8633057016413658
 30
0.0
 11
2.3529447937689829
 21
0.7191569255373908
 31
0.0
  0
LINE
  5
22E
  8
0
 10
2.3529447937689829
 20
0.7191569255373908
 30
0.0
 11
2.2959970552547011
 21
0.7191569255373908
 31
0.0
  0
LINE
  5
22F
  8
0
 10
2.2959970552547011
 20
0.6217925154778641
 30
0.0
 11
2.3529447937689829
 21
0.5648447771964129
 31
0.0
  0
LINE
  5
230
  8
0
 10
2.2959970552547011
 20
0.7191569255373908
 30
0.0
 11
2.2959970552547011
 21
0.6217925154778641
 31
0.0
  0
LINE
  5
231
  8
0
 10
2.3529447937689829
 20
0.5648447771964129
 30
0.0
 11
2.3529447937689829
 21
0.4794231719279197
 31
0.0
  0
LINE
  5
232
  8
0
 10
2.3529447937689829
 20
0.4794231719279197
 30
0.0
 11
2.2959970552547011
 21
0.4794231719279197
 31
0.0
  0
LINE
  5
233
  8
0
 10
1.7629907902883131
 20
0.3592641229333822
 30
0.0
 11
1.762766418534738
 21
0.3592641229333822
 31
0.0
  0
LINE
  5
234
  8
0
 10
2.2959970552547011
 20
0.4794231719279197
 30
0.0
 11
2.2959970552547011
 21
0.3770602910080925
 31
0.0
  0
LINE
  5
235
  8
0
 10
1.061859919973358
 20
0.5470714532420971
 30
0.0
 11
1.0616656081037941
 21
0.5471836392534897
 31
0.0
  0
LINE
  5
236
  8
0
 10
1.762766418534738
 20
0.3592641229333822
 30
0.0
 11
1.7625496919426951
 21
0.3593221946211997
 31
0.0
  0
LINE
  5
237
  8
0
 10
1.0620766458669091
 20
0.5470133816997987
 30
0.0
 11
1.061859919973358
 21
0.5470714532420971
 31
0.0
  0
LINE
  5
238
  8
0
 10
0.4313688421680127
 20
1.125610936287557
 30
0.0
 11
0.4312474393445882
 21
1.1258350570278699
 31
0.0
  0
LINE
  5
239
  8
0
 10
0.5878421066954616
 20
1.39706497368752
 30
0.0
 11
0.5878429551885347
 21
1.3970664433145421
 31
0.0
  0
LINE
  5
23A
  8
0
 10
2.3529447937253281
 20
0.8441634909831918
 30
0.0
 11
1.892515940118755
 21
1.0265968899475411
 31
0.0
  0
LINE
  5
23B
  8
0
 10
2.3529447937689829
 20
0.8604343700571916
 30
0.0
 11
1.9009197678460621
 21
1.0395379629044319
 31
0.0
  0
LINE
  5
23C
  8
0
 10
1.9024027963096151
 20
1.0418216815742189
 30
0.0
 11
2.3529447937689829
 21
0.8633057016413658
 31
0.0
  0
LINE
  5
23D
  8
0
 10
1.068728987054782
 20
0.5636548414477148
 30
0.0
 11
1.765109330081031
 21
0.377060290571535
 31
0.0
  0
LINE
  5
23E
  8
0
 10
1.0628902805110549
 20
0.5495589611236939
 30
0.0
 11
1.7631178584051661
 21
0.3619335472758394
 31
0.0
  0
LINE
  5
23F
  8
0
 10
1.0618599206427459
 20
0.5470714530674741
 30
0.0
 11
1.7625496921682491
 21
0.3593221945920959
 31
0.0
  0
LINE
  5
240
  8
0
 10
1.6963896848101281
 20
1.247831384389428
 30
0.0
 11
1.902401332168665
 21
1.041819427016889
 31
0.0
  0
LINE
  5
241
  8
0
 10
1.892492452112492
 20
1.0265607207547871
 30
0.0
 11
1.688057042381842
 21
1.2309964381274761
 31
0.0
  0
LINE
  5
242
  8
0
 10
1.900915000172972
 20
1.0395306210848501
 30
0.0
 11
1.6951397884913599
 21
1.245306142518529
 31
0.0
  0
LINE
  5
243
  8
0
 10
0.5892713807115797
 20
1.394180639676051
 30
0.0
 11
0.5885571679464193
 21
1.3956235414952971
 31
0.0
  0
LINE
  5
244
  8
0
 10
0.5904617353080539
 20
1.391775803262135
 30
0.0
 11
0.5966515792388237
 21
1.379270654055289
 31
0.0
  0
LINE
  5
245
  8
0
 10
0.5885571679464193
 20
1.3956235414952971
 30
0.0
 11
0.5878429551885347
 21
1.3970664433145421
 31
0.0
  0
LINE
  5
246
  8
0
 10
0.5892713807115797
 20
1.394180639676051
 30
0.0
 11
0.5904617353080539
 21
1.391775803262135
 31
0.0
  0
LINE
  5
247
  8
0
 10
0.5878429551885347
 20
1.3970664433145421
 30
0.0
 11
1.696389684817404
 21
1.247831384418532
 31
0.0
  0
LINE
  5
248
  8
0
 10
1.6880570423963941
 20
1.230996438098372
 30
0.0
 11
0.5973657919967083
 21
1.377827752236044
 31
0.0
  0
LINE
  5
249
  8
0
 10
1.695139788484084
 20
1.2453061424894249
 30
0.0
 11
0.5892713807115797
 21
1.394180639676051
 31
0.0
  0
LINE
  5
24A
  8
0
 10
0.5966515792388237
 20
1.379270654055289
 30
0.0
 11
0.5973657919967083
 21
1.377827752236044
 31
0.0
  0
LINE
  5
24B
  8
0
 10
2.295997055247426
 20
0.3770602910371963
 30
0.0
 11
2.295997055247426
 21
0.3757255784003064
 31
0.0
  0
LINE
  5
24C
  8
0
 10
1.765109330081031
 20
0.377060290571535
 30
0.0
 11
2.295997055247426
 21
0.3770602910371963
 31
0.0
  0
LINE
  5
24D
  8
0
 10
2.295997055247426
 20
0.3757255784003064
 30
0.0
 11
2.2959970552619771
 21
0.364158069161931
 31
0.0
  0
LINE
  5
24E
  8
0
 10
2.2959970552619771
 20
0.364158069161931
 30
0.0
 11
2.2959970552619771
 21
0.3619335481489543
 31
0.0
  0
LINE
  5
24F
  8
0
 10
2.2959970552619771
 20
0.3619335481489543
 30
0.0
 11
2.2959970552619771
 21
0.3605988355411682
 31
0.0
  0
LINE
  5
250
  8
0
 10
1.7631178567316961
 20
0.3619335476541892
 30
0.0
 11
2.2959970552619771
 21
0.3619335481489543
 31
0.0
  0
LINE
  5
251
  8
0
 10
2.2959970552619771
 20
0.3605988355411682
 30
0.0
 11
2.2959970552619771
 21
0.3592641229333822
 31
0.0
  0
LINE
  5
252
  8
0
 10
1.762766422281856
 20
0.3592641224677209
 30
0.0
 11
2.2959970552619771
 21
0.3592641229333822
 31
0.0
  0
LINE
  5
253
  8
0
 10
0.5892649195156992
 20
1.3941905092215161
 30
0.0
 11
0.5885535128545599
 21
1.395627741963835
 31
0.0
  0
LINE
  5
254
  8
0
 10
0.4343058443118935
 20
1.125793518964201
 30
0.0
 11
0.4327766421192792
 21
1.1258142882725219
 31
0.0
  0
LINE
  5
255
  8
0
 10
0.5904505972794141
 20
1.3917951213370541
 30
0.0
 11
0.5966161216420005
 21
1.3793391043145671
 31
0.0
  0
LINE
  5
256
  8
0
 10
0.5892649195156992
 20
1.3941905092215161
 30
0.0
 11
0.5904505972794141
 21
1.3917951213370541
 31
0.0
  0
LINE
  5
257
  8
0
 10
0.5885535128545599
 20
1.395627741963835
 30
0.0
 11
0.5878421061934205
 21
1.39706497467705
 31
0.0
  0
LINE
  5
258
  8
0
 10
0.5973275282958639
 20
1.377901871572248
 30
0.0
 11
0.4516368024997064
 21
1.1255581333243749
 31
0.0
  0
LINE
  5
259
  8
0
 10
0.5892649195156992
 20
1.3941905092215161
 30
0.0
 11
0.4343058443118935
 21
1.125793518964201
 31
0.0
  0
LINE
  5
25A
  8
0
 10
0.4312474399266648
 20
1.125835057639051
 30
0.0
 11
0.5878421061934205
 21
1.39706497467705
 31
0.0
  0
LINE
  5
25B
  8
0
 10
0.4516368023687392
 20
1.1255581330915441
 30
0.0
 11
0.4312474399266648
 21
1.125835057639051
 31
0.0
  0
LINE
  5
25C
  8
0
 10
0.5966161216420005
 20
1.3793391043145671
 30
0.0
 11
0.5973275282958639
 21
1.377901871572248
 31
0.0
  0
LINE
  5
25D
  8
0
 10
0.4516368016702473
 20
1.1255581331206479
 30
0.0
 11
0.6137068158204784
 21
0.8263620154757518
 31
0.0
  0
LINE
  5
25E
  8
0
 10
0.4343058433951228
 20
1.125793518964201
 30
0.0
 11
0.6024418773813524
 21
0.8153989721031393
 31
0.0
  0
LINE
  5
25F
  8
0
 10
0.4313688421680127
 20
1.125610936287557
 30
0.0
 11
0.6004539470450255
 21
0.8134643174416851
 31
0.0
  0
LINE
  5
260
  8
0
 10
0.6137068158132024
 20
0.8263620154757518
 30
0.0
 11
0.6004539473869955
 21
0.8134643177327234
 31
0.0
  0
LINE
  5
261
  8
0
 10
0.6004539473869955
 20
0.8134643177327234
 30
0.0
 11
1.0618599208828521
 21
0.5470714536495507
 31
0.0
  0
LINE
  5
262
  8
0
 10
0.6137068165626261
 20
0.8263620150391943
 30
0.0
 11
1.0687289870475061
 21
0.5636548413021956
 31
0.0
  0
LINE
  5
263
  8
0
 10
0.602441877766978
 20
0.81539897233597
 30
0.0
 11
1.0628902808311971
 21
0.5495589618803934
 31
0.0
  0
LINE
  5
264
  8
0
 10
2.352944792044581
 20
0.7191569255373908
 30
0.0
 11
2.352944792044581
 21
0.7191568869166077
 31
0.0
  0
LINE
  5
265
  8
0
 10
2.3502753668290088
 20
0.7191569214337507
 30
0.0
 11
2.3502753668290088
 21
0.7191568871494383
 31
0.0
  0
LINE
  5
266
  8
0
 10
2.352944792044581
 20
0.7191568869166077
 30
0.0
 11
2.3502753668290088
 21
0.7191568871494383
 31
0.0
  0
LINE
  5
267
  8
0
 10
2.349830462779209
 20
0.7191568871785421
 30
0.0
 11
2.349830462779209
 21
0.7191569214919582
 31
0.0
  0
ARC
  5
268
  8
0
 10
2.3008909951749952
 20
0.6479722187214067
 30
0.0
 40
0.0035592336186421
 50
89.999996327272541
 51
179.99999471394051
  0
LINE
  5
269
  8
0
 10
2.2973317599535221
 20
0.6212780018104241
 30
0.0
 11
2.2965115688639339
 21
0.6212780018686317
 31
0.0
  0
LINE
  5
26A
  8
0
 10
2.297331761546956
 20
0.6479722190415487
 30
0.0
 11
2.2973317599535221
 21
0.6212780018104241
 31
0.0
  0
LINE
  5
26B
  8
0
 10
2.316462645612773
 20
0.6515314513235353
 30
0.0
 11
2.3008909954005499
 21
0.6515314523130656
 31
0.0
  0
ARC
  5
26C
  8
0
 10
2.3498304630193161
 20
0.6857891062973068
 30
0.0
 40
0.0333678151747697
 50
89.999994718109321
 51
179.9995939405847
  0
LINE
  5
26D
  8
0
 10
2.316462647846492
 20
0.685789342795033
 30
0.0
 11
2.316462645612773
 21
0.6515314513235353
 31
0.0
  0
LINE
  5
26E
  8
0
 10
2.352944791695335
 20
0.4794231719279197
 30
0.0
 11
2.352944791695335
 21
0.4794231333071366
 31
0.0
  0
LINE
  5
26F
  8
0
 10
2.3502753664724869
 20
0.4794231678533834
 30
0.0
 11
2.3502753664724869
 21
0.4794231335399673
 31
0.0
  0
LINE
  5
270
  8
0
 10
2.352944791695335
 20
0.4794231333071366
 30
0.0
 11
2.3502753664724869
 21
0.4794231335399673
 31
0.0
  0
ARC
  5
271
  8
0
 10
2.3498304597378592
 20
0.4460553184035235
 30
0.0
 40
0.0333678151747697
 50
89.999995389288799
 51
174.6715326166273
  0
LINE
  5
272
  8
0
 10
2.3498304624226871
 20
0.4794231335690711
 30
0.0
 11
2.3498304624226871
 21
0.4794231678824872
 31
0.0
  0
ARC
  5
273
  8
0
 10
2.3008909948184728
 20
0.4082384651119356
 30
0.0
 40
0.0035592336186421
 50
89.999996327272541
 51
179.99999471394051
  0
LINE
  5
274
  8
0
 10
2.2973317596042762
 20
0.381544248200953
 30
0.0
 11
2.2959970552547011
 21
0.3815442483464721
 31
0.0
  0
LINE
  5
275
  8
0
 10
2.2973317612049859
 20
0.4082384654611815
 30
0.0
 11
2.2973317596042762
 21
0.381544248200953
 31
0.0
  0
LINE
  5
276
  8
0
 10
2.3164626452635271
 20
0.4117976977431681
 30
0.0
 11
2.3008909950440279
 21
0.4117976987326984
 31
0.0
  0
ARC
  5
277
  8
0
 10
2.3498304626627942
 20
0.4460553527169396
 30
0.0
 40
0.0333678151747696
 50
89.999994718109321
 51
179.9995939405847
  0
LINE
  5
278
  8
0
 10
2.3164626474899701
 20
0.446055589185562
 30
0.0
 11
2.3164626452635271
 21
0.4117976977431681
 31
0.0
  0
LINE
  5
279
  8
0
 10
0.9698265338156488
 20
0.7707533580833115
 30
0.0
 11
0.6739174075701158
 21
0.9415965718217194
 31
0.0
  0
LINE
  5
27A
  8
0
 10
1.285503630773746
 20
0.6399956235254649
 30
0.0
 11
0.9698265339829958
 21
0.7707533583452461
 31
0.0
  0
LINE
  5
27B
  8
0
 10
1.6155473754770351
 20
0.5515606686531102
 30
0.0
 11
1.285503630773746
 21
0.6399956235254649
 31
0.0
  0
LINE
  5
27C
  8
0
 10
1.9543106281125799
 20
0.5069616402906833
 30
0.0
 11
1.6155473754770351
 21
0.5515606686531102
 31
0.0
  0
LINE
  5
27D
  8
0
 10
2.3529447937689829
 20
0.5069616402906833
 30
0.0
 11
1.9543106281125799
 21
0.5069616402906833
 31
0.0
  0
LINE
  5
27E
  8
0
 10
0.678166777106526
 20
1.1886904487037091
 30
0.0
 11
0.5209650537944981
 21
1.279450906004058
 31
0.0
  0
LINE
  5
27F
  8
0
 10
0.9698265319602796
 20
1.010487112944247
 30
0.0
 11
0.6739174079266377
 21
1.1813303253729821
 31
0.0
  0
LINE
  5
280
  8
0
 10
1.2855036311229919
 20
0.879729377105832
 30
0.0
 11
0.9698265319602796
 21
1.010487112944247
 31
0.0
  0
LINE
  5
281
  8
0
 10
1.6155473758262811
 20
0.7912944222043734
 30
0.0
 11
1.2855036311229919
 21
0.879729377105832
 31
0.0
  0
LINE
  5
282
  8
0
 10
1.9543106284545499
 20
0.7466953939001542
 30
0.0
 11
1.6155473758262811
 21
0.7912944222043734
 31
0.0
  0
LINE
  5
283
  8
0
 10
2.3529447937689829
 20
0.7466953938710504
 30
0.0
 11
1.9543106284545499
 21
0.7466953939001542
 31
0.0
  0
LINE
  5
284
  8
0
 10
0.678166777106526
 20
1.1886904487037091
 30
0.0
 11
0.6739174079266377
 21
1.1813303253729821
 31
0.0
  0
LINE
  5
285
  8
0
 10
2.2959970552619771
 20
0.3592641229333822
 30
0.0
 11
2.2959970552619771
 21
0.35659469771781
 31
0.0
  0
LINE
  5
286
  8
0
 10
1.7627664223327879
 20
0.3592641229042783
 30
0.0
 11
2.2959970552619771
 21
0.3592641229333822
 31
0.0
  0
LINE
  5
287
  8
0
 10
1.7624149821203901
 20
0.3565946976596024
 30
0.0
 11
2.2959970552619771
 21
0.35659469771781
 31
0.0
  0
LINE
  5
288
  8
0
 10
1.7599098553182551
 20
0.3375663229671773
 30
0.0
 11
2.2769686805040692
 21
0.3375663229380734
 31
0.0
  0
LINE
  5
289
  8
0
 10
0.5991192330984632
 20
0.8111525266431272
 30
0.0
 11
1.0608295606652971
 21
0.5445839448075276
 31
0.0
  0
LINE
  5
28A
  8
0
 10
0.6060841016587802
 20
0.7851592832885217
 30
0.0
 11
1.0536791933118359
 21
0.5267401366727427
 31
0.0
  0
LINE
  5
28B
  8
0
 10
0.6004539456989733
 20
0.8134643166849855
 30
0.0
 11
1.0618599205627099
 21
0.5470714528928511
 31
0.0
  0
LINE
  5
28C
  8
0
 10
1.073360796479391
 20
0.5439898013137281
 30
0.0
 11
1.762766418542014
 21
0.3592641229333822
 31
0.0
  0
LINE
  5
28D
  8
0
 10
1.060829560126876
 20
0.5445839434978553
 30
0.0
 11
1.7624149821349411
 21
0.3565946976304986
 31
0.0
  0
LINE
  5
28E
  8
0
 10
1.0534848803144989
 20
0.5268523232371081
 30
0.0
 11
1.7599098553182551
 21
0.3375663229671773
 31
0.0
  0
LINE
  5
28F
  8
0
 10
0.5991192330984632
 20
0.8111525266431272
 30
0.0
 11
0.6060841016587802
 21
0.7851592832885217
 31
0.0
  0
LINE
  5
290
  8
0
 10
2.2959970552619771
 20
0.35659469771781
 30
0.0
 11
2.2769686805040692
 21
0.3375663229380734
 31
0.0
  0
LINE
  5
291
  8
0
 10
0.5991192330984632
 20
0.8111525266431272
 30
0.0
 11
0.6004539456989733
 21
0.8134643166849855
 31
0.0
  0
LINE
  5
292
  8
0
 10
1.9024027962441321
 20
1.0418216815742189
 30
0.0
 11
1.892492452105216
 21
1.0265607208129941
 31
0.0
  0
LINE
  5
293
  8
0
 10
1.7599098553182551
 20
0.3375663229671773
 30
0.0
 11
1.765109330190171
 21
0.377060290571535
 31
0.0
  0
LINE
  5
294
  8
0
 10
1.0534848803144989
 20
0.5268523232371081
 30
0.0
 11
1.068728987040231
 21
0.5636548413895071
 31
0.0
  0
LINE
  5
295
  8
0
 10
1.6880570423963941
 20
1.2309964381856839
 30
0.0
 11
1.696389684831956
 21
1.247831384418532
 31
0.0
  0
LINE
  5
296
  8
0
 10
0.3304775807046099
 20
1.2791934770357321
 30
-0.0000000001369282
 11
0.3304775807046099
 21
0.8756031961820553
 31
-0.0000000001719294
  0
SOLID
  5
297
  8
0
 10
0.3117388266837224
 20
0.9880357203073799
 30
-0.0000000001719294
 11
0.3492163347182213
 21
0.9880357203073799
 31
-0.0000000001719294
 12
0.3304775807046099
 22
0.8756031961820553
 32
-0.0000000001719294
 13
0.3304775807046099
 23
0.8756031961820553
 33
-0.0000000001719294
  0
LINE
  5
298
  8
0
 10
0.3523299497537664
 20
1.2791934770648361
 30
-0.0000000001369282
 11
0.4844829873836716
 21
1.373645824030973
 31
-0.0000000001369282
  0
LINE
  5
299
  8
0
 10
0.1752328448274056
 20
1.373645824030973
 30
-0.0000000001369282
 11
0.3073858824573108
 21
1.2791934770648361
 31
-0.0000000001369282
  0
LINE
  5
29A
  8
0
 10
0.3073858824573108
 20
1.2791934770648361
 30
-0.0000000001369282
 11
0.3523299497537664
 21
1.2791934770648361
 31
-0.0000000001369282
  0
LINE
  5
29B
  8
0
 10
0.4844829873836716
 20
1.373645824030973
 30
-0.0000000001369282
 11
0.1752328448274056
 21
1.373645824030973
 31
-0.0000000001369282
  0
LINE
  5
29C
  8
0
 10
0.4844829873836716
 20
1.5105049635167229
 30
-0.0000000001369282
 11
0.1752328448274056
 21
1.5105049635167229
 31
-0.0000000001369282
  0
LINE
  5
29D
  8
0
 10
0.6779151666487451
 20
1.4204890429391519
 30
-0.0000000001369282
 11
0.4848754022241338
 21
1.5105049635167229
 31
-0.0000000001369282
  0
LINE
  5
29E
  8
0
 10
0.4844829873836716
 20
1.351841167284874
 30
-0.0000000001369282
 11
0.4844829873836716
 21
1.3954504807770709
 31
-0.0000000001369282
  0
LINE
  5
29F
  8
0
 10
0.4844829873836716
 20
1.3954504807770709
 30
-0.0000000001369282
 11
0.4844829873836716
 21
1.5105049635167229
 31
-0.0000000001369282
  0
LINE
  5
2A0
  8
0
 10
0.5847352627170041
 20
1.3050927635049441
 30
-0.0000000001369282
 11
0.6779151666487451
 21
1.3050927635049441
 31
-0.0000000001369282
  0
LINE
  5
2A1
  8
0
 10
0.5847352627170041
 20
1.3050927635049441
 30
-0.0000000001369282
 11
0.4844829873836716
 21
1.351841167284874
 31
-0.0000000001369282
  0
LINE
  5
2A2
  8
0
 10
0.6779151666487451
 20
1.4204890429391519
 30
-0.0000000001369282
 11
0.6779151666487451
 21
1.3050927635049441
 31
-0.0000000001369282
  0
LINE
  5
2A3
  8
0
 10
0.1752328448274056
 20
1.337038204888813
 30
-0.0000000001369282
 11
0.1752328448274056
 21
1.5105049635167229
 31
-0.0000000001369282
  0
LINE
  5
2A4
  8
0
 10
0.0017660861922195
 20
1.337038204888813
 30
-0.0000000001369282
 11
0.0017660861922195
 21
1.5105049635167229
 31
-0.0000000001369282
  0
LINE
  5
2A5
  8
0
 10
0.1752328448274056
 20
1.337038204888813
 30
-0.0000000001369282
 11
0.0017660861922195
 21
1.337038204888813
 31
-0.0000000001369282
  0
LINE
  5
2A6
  8
0
 10
0.1752328448274056
 20
1.5105049635167229
 30
-0.0000000001369282
 11
0.0017660861922195
 21
1.5105049635167229
 31
-0.0000000001369282
  0
LINE
  5
2A7
  8
0
 10
0.0181215234406409
 20
1.548101228370796
 30
-0.0000000001369282
 11
0.0181215234406409
 21
1.556101940077496
 31
-0.0000000001369282
  0
LINE
  5
2A8
  8
0
 10
0.1588774075862602
 20
1.548101228370796
 30
-0.0000000001369282
 11
0.1588774075862602
 21
1.556101940077496
 31
-0.0000000001369282
  0
LINE
  5
2A9
  8
0
 10
0.1770029137915117
 20
1.566722353891236
 30
-0.0000000001369282
 11
-0.0000039827718865
 21
1.566722353891236
 31
-0.0000000001369282
  0
LINE
  5
2AA
  8
0
 10
0.1770029137915117
 20
1.556101940077496
 30
-0.0000000001369282
 11
-0.0000039827718865
 21
1.556101940077496
 31
-0.0000000001369282
  0
LINE
  5
2AB
  8
0
 10
0.1588774075862602
 20
1.548101228370796
 30
-0.0000000001369282
 11
0.0181215234406409
 21
1.548101228370796
 31
-0.0000000001369282
  0
LINE
  5
2AC
  8
0
 10
0.0247769827474258
 20
1.5105049635167229
 30
-0.0000000001369282
 11
0.0247769827474258
 21
1.548101228370796
 31
-0.0000000001369282
  0
LINE
  5
2AD
  8
0
 10
0.1522219482721994
 20
1.5105049635167229
 30
-0.0000000001369282
 11
0.1522219482721994
 21
1.548101228370796
 31
-0.0000000001369282
  0
LINE
  5
2AE
  8
0
 10
-0.0000039827718865
 20
1.566722353891236
 30
-0.0000000001369282
 11
-0.0000039827718865
 21
1.556101940077496
 31
-0.0000000001369282
  0
LINE
  5
2AF
  8
0
 10
0.1770029137915117
 20
1.566722353891236
 30
-0.0000000001369282
 11
0.1770029137915117
 21
1.556101940077496
 31
-0.0000000001369282
  0
ENDBLK
  5
2B0
  8
0
  0
ENDSEC
  0
SECTION
  2
ENTITIES
  0
LINE
  5
2D8
  8
0
 10
0.4832863455586392
 20
-0.3905351587714421
 30
-0.000000009022203
 11
0.4832863455630048
 21
-0.3777342114042284
 31
-0.000000009022203
  0
LINE
  5
2D9
  8
0
 10
0.5661067103042057
 20
-0.3777342114042284
 30
-0.000000009022203
 11
0.5661067102998402
 21
-0.3905351587714421
 31
-0.000000009022203
  0
LINE
  5
2DA
  8
0
 10
0.5661067103042057
 20
-0.3777342114042284
 30
-0.000000009022203
 11
0.5661067103042057
 21
-0.1949330878121571
 31
-0.000000009022203
  0
LINE
  5
2DB
  8
0
 10
0.1809730307729239
 20
-0.2908240229791289
 30
0.0
 11
0.4832863455630048
 21
-0.3172730108691638
 31
0.0
  0
LINE
  5
2DC
  8
0
 10
-0.2490109767263732
 20
-0.1756221913701182
 30
-0.0000000000692498
 11
0.1810595631271042
 21
-0.2908592452205511
 31
-0.0000000000000135
  0
LINE
  5
2DD
  8
0
 10
-0.7051447052385869
 20
0.0877267406702714
 30
-0.0000000001635151
 11
-0.2490109767263732
 21
-0.1756221913701182
 31
-0.0000000000692498
  0
LINE
  5
2DE
  8
0
 10
0.4832863455630048
 20
-0.3172730108691638
 30
-0.000000009022203
 11
0.4832863455630048
 21
-0.3777342114042284
 31
-0.000000009022203
  0
LINE
  5
2DF
  8
0
 10
0.4832863455630048
 20
-0.3905351587714421
 30
-0.0000000000000011
 11
0.5661067103042057
 21
-0.3905351587714421
 31
0.0000000000000881
  0
LINE
  5
2E0
  8
0
 10
-0.5896025273331418
 20
0.1348285511807745
 30
-0.0000000001593649
 11
-0.7051447052385869
 21
0.1348285511807745
 31
0.0
  0
LINE
  5
2E1
  8
0
 10
-0.5925301856398676
 20
0.1239023816686796
 30
-0.0000000001614417
 11
-0.7051447052385869
 21
0.1239023816686796
 31
0.0
  0
LINE
  5
2E2
  8
0
 10
0.203874347390132
 20
-0.1949330878121571
 30
0.0
 11
0.5661067103042057
 21
-0.1949330878121571
 31
0.0
  0
LINE
  5
2E3
  8
0
 10
0.2024358898887783
 20
-0.2058592572893275
 30
0.0
 11
0.5661067103042057
 21
-0.2058592572893275
 31
0.0
  0
LINE
  5
2E4
  8
0
 10
-0.2109672895931965
 20
-0.0837766061680185
 30
0.0
 11
0.203874347390132
 21
-0.1949330878121571
 31
0.0
  0
LINE
  5
2E5
  8
0
 10
-0.2151846336049004
 20
-0.0939581752490511
 30
0.0
 11
0.2024358898887783
 21
-0.2058592572893275
 31
0.0
  0
LINE
  5
2E6
  8
0
 10
-0.5896025273331418
 20
0.1348285511807745
 30
-0.0000000001593649
 11
-0.2109672895931965
 21
-0.0837766061680185
 31
-0.0000000000010487
  0
LINE
  5
2E7
  8
0
 10
-0.5925301856398676
 20
0.1239023816686796
 30
-0.0000000001614417
 11
-0.2151846336049004
 21
-0.0939581752490511
 31
-0.0000000000005226
  0
LINE
  5
2E8
  8
0
 10
-0.7051447052385869
 20
0.1348285511807745
 30
0.0
 11
-0.7051447052385869
 21
0.0877267406877337
 31
-0.0000000001145669
  0
LINE
  5
2E9
  8
0
 10
0.56610671155276
 20
0.1274500544563608
 30
0.0
 11
0.56610671155276
 21
0.0409607887939757
 31
0.0
  0
LINE
  5
2EA
  8
0
 10
0.56610671155276
 20
0.0409607887939757
 30
0.0
 11
0.531938068444191
 21
0.0409607887939757
 31
0.0
  0
LINE
  5
2EB
  8
0
 10
0.531938068444191
 20
-0.0174578572417403
 30
0.0
 11
0.56610671155276
 21
-0.051626500210611
 31
0.0
  0
LINE
  5
2EC
  8
0
 10
0.531938068444191
 20
0.0409607887939757
 30
0.0
 11
0.531938068444191
 21
-0.0174578572417403
 31
0.0
  0
LINE
  5
2ED
  8
0
 10
0.56610671155276
 20
-0.051626500210611
 30
0.0
 11
0.56610671155276
 21
-0.1028794633717069
 31
0.0
  0
LINE
  5
2EE
  8
0
 10
0.56610671155276
 20
-0.1028794633717069
 30
0.0
 11
0.531938068444191
 21
-0.1028794633717069
 31
0.0
  0
LINE
  5
2EF
  8
0
 10
0.2121343094643578
 20
-0.1749748927684294
 30
0.0
 11
0.2119996864122129
 21
-0.1749748927684294
 31
0.0
  0
LINE
  5
2F0
  8
0
 10
0.531938068444191
 20
-0.1028794633717069
 30
0.0
 11
0.531938068444191
 21
-0.1642971919236032
 31
0.0
  0
LINE
  5
2F1
  8
0
 10
-0.2085442127246154
 20
-0.0622904945832005
 30
0.0
 11
-0.2086607998463535
 21
-0.0622231829763649
 31
0.0
  0
LINE
  5
2F2
  8
0
 10
0.2119996864122129
 20
-0.1749748927684294
 30
0.0
 11
0.2118696504569868
 21
-0.1749400497557388
 31
0.0
  0
LINE
  5
2F3
  8
0
 10
-0.2084141771884845
 20
-0.0623253375085795
 30
0.0
 11
-0.2085442127246154
 21
-0.0622904945832005
 31
0.0
  0
LINE
  5
2F4
  8
0
 10
-0.5868388594078227
 20
0.2848331952440759
 30
0.0
 11
-0.5869117011018773
 21
0.2849676676882637
 31
0.0
  0
LINE
  5
2F5
  8
0
 10
-0.4929549006913533
 20
0.4477056176840535
 30
0.0
 11
-0.4929543915955093
 21
0.4477064994602671
 31
0.0
  0
LINE
  5
2F6
  8
0
 10
0.5661067115265666
 20
0.1159647280614564
 30
0.0
 11
0.2898493993626232
 21
0.2254247674400659
 31
0.0
  0
LINE
  5
2F7
  8
0
 10
0.56610671155276
 20
0.1257272555058563
 30
0.0
 11
0.2948916959990072
 21
0.233189411214201
 31
0.0
  0
LINE
  5
2F8
  8
0
 10
0.2957815130771394
 20
0.2345596424160732
 30
0.0
 11
0.56610671155276
 21
0.1274500544563608
 31
0.0
  0
LINE
  5
2F9
  8
0
 10
-0.2044227724757604
 20
-0.0523404616598299
 30
0.0
 11
0.2134054333399888
 21
-0.1642971921855377
 31
0.0
  0
LINE
  5
2FA
  8
0
 10
-0.2079259964019968
 20
-0.0607979898542425
 30
0.0
 11
0.2122105503344699
 21
-0.1733732381629551
 31
0.0
  0
LINE
  5
2FB
  8
0
 10
-0.2085442123229825
 20
-0.0622904946879743
 30
0.0
 11
0.2118696505923197
 21
-0.1749400497732012
 31
0.0
  0
LINE
  5
2FC
  8
0
 10
0.1721736461774469
 20
0.3581654641051983
 30
0.0
 11
0.2957806345925689
 21
0.2345582896816751
 31
0.0
  0
LINE
  5
2FD
  8
0
 10
0.2898353065588651
 20
0.2254030659244137
 30
0.0
 11
0.1671740607204754
 21
0.3480644963480273
 31
0.0
  0
LINE
  5
2FE
  8
0
 10
0.2948888353951531
 20
0.2331850061224514
 30
0.0
 11
0.171423708386186
 21
0.3566503189826591
 31
0.0
  0
LINE
  5
2FF
  8
0
 10
-0.4920973362816824
 20
0.4459750172771721
 30
0.0
 11
-0.4925258639407787
 21
0.4468407583687196
 31
0.0
  0
LINE
  5
300
  8
0
 10
-0.4913831235237979
 20
0.4445321154288223
 30
0.0
 11
-0.4876692171653361
 21
0.4370290259047153
 31
0.0
  0
LINE
  5
301
  8
0
 10
-0.4925258639407787
 20
0.4468407583687196
 30
0.0
 11
-0.4929543915955093
 21
0.4477064994602671
 31
0.0
  0
LINE
  5
302
  8
0
 10
-0.4920973362816824
 20
0.4459750172771721
 30
0.0
 11
-0.4913831235237979
 21
0.4445321154288223
 31
0.0
  0
LINE
  5
303
  8
0
 10
-0.4929543915955093
 20
0.4477064994602671
 30
0.0
 11
0.1721736461818125
 21
0.3581654641226606
 31
0.0
  0
LINE
  5
304
  8
0
 10
0.1671740607292065
 20
0.348064496330565
 30
0.0
 11
-0.4872406895106053
 21
0.4361632848131677
 31
0.0
  0
LINE
  5
305
  8
0
 10
0.1714237083818205
 20
0.3566503189651968
 30
0.0
 11
-0.4920973362816824
 21
0.4459750172771721
 31
0.0
  0
LINE
  5
306
  8
0
 10
-0.4876692171653361
 20
0.4370290259047153
 30
0.0
 11
-0.4872406895106053
 21
0.4361632848131677
 31
0.0
  0
LINE
  5
307
  8
0
 10
0.5319380684398255
 20
-0.1642971919061409
 30
0.0
 11
0.5319380684398255
 21
-0.1650980194882748
 31
0.0
  0
LINE
  5
308
  8
0
 10
0.2134054333399888
 20
-0.1642971921855377
 30
0.0
 11
0.5319380684398255
 21
-0.1642971919061409
 31
0.0
  0
LINE
  5
309
  8
0
 10
0.5319380684398255
 20
-0.1650980194882748
 30
0.0
 11
0.5319380684485565
 21
-0.1720385250313001
 31
0.0
  0
LINE
  5
30A
  8
0
 10
0.5319380684485565
 20
-0.1720385250313001
 30
0.0
 11
0.5319380684485565
 21
-0.1733732376390861
 31
0.0
  0
LINE
  5
30B
  8
0
 10
0.5319380684485565
 20
-0.1733732376390861
 30
0.0
 11
0.5319380684485565
 21
-0.1741740652037577
 31
0.0
  0
LINE
  5
30C
  8
0
 10
0.2122105493303877
 20
-0.1733732379359452
 30
0.0
 11
0.5319380684485565
 21
-0.1733732376390861
 31
0.0
  0
LINE
  5
30D
  8
0
 10
0.5319380684485565
 20
-0.1741740652037577
 30
0.0
 11
0.5319380684485565
 21
-0.1749748927684294
 31
0.0
  0
LINE
  5
30E
  8
0
 10
0.2119996886604838
 20
-0.1749748930478262
 30
0.0
 11
0.5319380684485565
 21
-0.1749748927684294
 31
0.0
  0
LINE
  5
30F
  8
0
 10
-0.4921012129992107
 20
0.4459809390044513
 30
0.0
 11
-0.4925280569958943
 21
0.4468432786498426
 31
0.0
  0
LINE
  5
310
  8
0
 10
-0.5850766581214942
 20
0.284942744850062
 30
0.0
 11
-0.5859941794370628
 21
0.2849552064350547
 31
0.0
  0
LINE
  5
311
  8
0
 10
-0.4913898063409817
 20
0.4445437062737739
 30
0.0
 11
-0.4876904917234299
 21
0.4370700960602818
 31
0.0
  0
LINE
  5
312
  8
0
 10
-0.4921012129992107
 20
0.4459809390044513
 30
0.0
 11
-0.4913898063409817
 21
0.4445437062737739
 31
0.0
  0
LINE
  5
313
  8
0
 10
-0.4925280569958943
 20
0.4468432786498426
 30
0.0
 11
-0.4929549009925779
 21
0.4477056182777716
 31
0.0
  0
LINE
  5
314
  8
0
 10
-0.4872636477311118
 20
0.4362077564148905
 30
0.0
 11
-0.5746780832088065
 21
0.2848015134661665
 31
0.0
  0
LINE
  5
315
  8
0
 10
-0.4921012129992107
 20
0.4459809390044513
 30
0.0
 11
-0.5850766581214942
 21
0.284942744850062
 31
0.0
  0
LINE
  5
316
  8
0
 10
-0.5869117007526313
 20
0.284967668054972
 30
0.0
 11
-0.4929549009925779
 21
0.4477056182777716
 31
0.0
  0
LINE
  5
317
  8
0
 10
-0.5746780832873867
 20
0.2848015133264681
 30
0.0
 11
-0.5869117007526313
 21
0.284967668054972
 31
0.0
  0
LINE
  5
318
  8
0
 10
-0.4876904917234299
 20
0.4370700960602818
 30
0.0
 11
-0.4872636477311118
 21
0.4362077564148905
 31
0.0
  0
LINE
  5
319
  8
0
 10
-0.5746780837064819
 20
0.2848015133439304
 30
0.0
 11
-0.4774360752163432
 21
0.1052838427569924
 31
0.0
  0
LINE
  5
31A
  8
0
 10
-0.5850766586715566
 20
0.284942744850062
 30
0.0
 11
-0.4841950382798189
 21
0.0987060167334249
 31
0.0
  0
LINE
  5
31B
  8
0
 10
-0.5868388594078227
 20
0.2848331952440759
 30
0.0
 11
-0.485387796481615
 21
0.0975452239365524
 31
0.0
  0
LINE
  5
31C
  8
0
 10
-0.4774360752207087
 20
0.1052838427569924
 30
0.0
 11
-0.485387796276433
 21
0.0975452241111753
 31
0.0
  0
LINE
  5
31D
  8
0
 10
-0.485387796276433
 20
0.0975452241111753
 30
0.0
 11
-0.2085442121789185
 21
-0.0622904943387283
 31
0.0
  0
LINE
  5
31E
  8
0
 10
-0.4774360747710546
 20
0.1052838424950579
 30
0.0
 11
-0.204422772480126
 21
-0.0523404617471414
 31
0.0
  0
LINE
  5
31F
  8
0
 10
-0.4841950380484434
 20
0.0987060168731233
 30
0.0
 11
-0.2079259962099115
 21
-0.0607979894002227
 31
0.0
  0
LINE
  5
320
  8
0
 10
0.566106710518119
 20
0.0409607887939757
 30
0.0
 11
0.566106710518119
 21
0.0409607656215059
 31
0.0
  0
LINE
  5
321
  8
0
 10
0.5645050553887757
 20
0.0409607863317916
 30
0.0
 11
0.5645050553887757
 21
0.0409607657612043
 31
0.0
  0
LINE
  5
322
  8
0
 10
0.566106710518119
 20
0.0409607656215059
 30
0.0
 11
0.5645050553887757
 21
0.0409607657612043
 31
0.0
  0
LINE
  5
323
  8
0
 10
0.5642381129588955
 20
0.0409607657786665
 30
0.0
 11
0.5642381129588955
 21
0.0409607863667162
 31
0.0
  0
ARC
  5
324
  8
0
 10
0.5348744323963671
 20
-0.0017500352956148
 30
0.0
 40
0.0021355401711853
 50
89.999996327272541
 51
179.99999471394051
  0
LINE
  5
325
  8
0
 10
0.5327388912634831
 20
-0.0177665654422043
 30
0.0
 11
0.5322467766097305
 21
-0.0177665654072797
 31
0.0
  0
LINE
  5
326
  8
0
 10
0.5327388922195439
 20
-0.0017500351035295
 30
0.0
 11
0.5327388912634831
 21
-0.0177665654422043
 31
0.0
  0
LINE
  5
327
  8
0
 10
0.5442174226590339
 20
0.0003855042656625
 30
0.0
 11
0.5348744325317
 21
0.0003855048593806
 31
0.0
  0
ARC
  5
328
  8
0
 10
0.5642381131029594
 20
0.0209400972499253
 30
0.0
 40
0.0200206891048618
 50
89.999994718109321
 51
179.9995939405847
  0
LINE
  5
329
  8
0
 10
0.5442174239992652
 20
0.0209402391485611
 30
0.0
 11
0.5442174226590339
 21
0.0003855042656625
 31
0.0
  0
LINE
  5
32A
  8
0
 10
0.5661067103085714
 20
-0.1028794633717069
 30
0.0
 11
0.5661067103085714
 21
-0.1028794865441768
 31
0.0
  0
LINE
  5
32B
  8
0
 10
0.5645050551748624
 20
-0.1028794658164287
 30
0.0
 11
0.5645050551748624
 21
-0.1028794864044784
 31
0.0
  0
LINE
  5
32C
  8
0
 10
0.5661067103085714
 20
-0.1028794865441768
 30
0.0
 11
0.5645050551748624
 21
-0.1028794864044784
 31
0.0
  0
ARC
  5
32D
  8
0
 10
0.5642381111340854
 20
-0.1229001754863447
 30
0.0
 40
0.0200206891048618
 50
89.999995389288799
 51
174.6715326166273
  0
LINE
  5
32E
  8
0
 10
0.5642381127449823
 20
-0.1028794863870161
 30
0.0
 11
0.5642381127449823
 21
-0.1028794657989664
 31
0.0
  0
ARC
  5
32F
  8
0
 10
0.5348744321824541
 20
-0.1455902874612974
 30
0.0
 40
0.0021355401711853
 50
89.999996327272541
 51
179.99999471394051
  0
LINE
  5
330
  8
0
 10
0.5327388910539355
 20
-0.1616068176078869
 30
0.0
 11
0.531938068444191
 21
-0.1616068175205754
 31
0.0
  0
LINE
  5
331
  8
0
 10
0.5327388920143619
 20
-0.1455902872517498
 30
0.0
 11
0.5327388910539355
 21
-0.1616068176078869
 31
0.0
  0
LINE
  5
332
  8
0
 10
0.5442174224494863
 20
-0.1434547478825578
 30
0.0
 11
0.5348744323177868
 21
-0.1434547472888397
 31
0.0
  0
ARC
  5
333
  8
0
 10
0.5642381128890464
 20
-0.122900154898295
 30
0.0
 40
0.0200206891048618
 50
89.999994718109321
 51
179.9995939405847
  0
LINE
  5
334
  8
0
 10
0.5442174237853522
 20
-0.1229000130171215
 30
0.0
 11
0.5442174224494863
 21
-0.1434547478825578
 31
0.0
  0
LINE
  5
335
  8
0
 10
-0.2637642444192409
 20
0.0719186483215282
 30
0.0
 11
-0.4413097201665608
 21
0.1744245765645729
 31
0.0
  0
LINE
  5
336
  8
0
 10
-0.0743579862443824
 20
-0.0065359924131798
 30
0.0
 11
-0.2637642443188326
 21
0.0719186484786889
 31
0.0
  0
LINE
  5
337
  8
0
 10
0.1236682605775911
 20
-0.0595969653365927
 30
0.0
 11
-0.0743579862443824
 21
-0.0065359924131798
 31
0.0
  0
LINE
  5
338
  8
0
 10
0.3269262121589179
 20
-0.0863563823540489
 30
0.0
 11
0.1236682605775911
 21
-0.0595969653365927
 31
0.0
  0
LINE
  5
339
  8
0
 10
0.56610671155276
 20
-0.0863563823540489
 30
0.0
 11
0.3269262121589179
 21
-0.0863563823540489
 31
0.0
  0
LINE
  5
33A
  8
0
 10
-0.4387600984447147
 20
0.3226809026937673
 30
0.0
 11
-0.5330811324319315
 21
0.3771371770739762
 31
0.0
  0
LINE
  5
33B
  8
0
 10
-0.2637642455324624
 20
0.2157589012380896
 30
0.0
 11
-0.4413097199526476
 21
0.3182648286953309
 31
0.0
  0
LINE
  5
33C
  8
0
 10
-0.0743579860348348
 20
0.1373042597350405
 30
0.0
 11
-0.2637642455324624
 21
0.2157589012380896
 31
0.0
  0
LINE
  5
33D
  8
0
 10
0.1236682607871387
 20
0.0842432867941653
 30
0.0
 11
-0.0743579860348348
 21
0.1373042597350405
 31
0.0
  0
LINE
  5
33E
  8
0
 10
0.3269262123640999
 20
0.0574838698116338
 30
0.0
 11
0.1236682607871387
 21
0.0842432867941653
 31
0.0
  0
LINE
  5
33F
  8
0
 10
0.56610671155276
 20
0.0574838697941715
 30
0.0
 11
0.3269262123640999
 21
0.0574838698116338
 31
0.0
  0
LINE
  5
340
  8
0
 10
-0.4387600984447147
 20
0.3226809026937673
 30
0.0
 11
-0.4413097199526476
 21
0.3182648286953309
 31
0.0
  0
LINE
  5
341
  8
0
 10
0.5319380684485565
 20
-0.1749748927684294
 30
0.0
 11
0.5319380684485565
 21
-0.1765765478977727
 31
0.0
  0
LINE
  5
342
  8
0
 10
0.2119996886910428
 20
-0.1749748927858917
 30
0.0
 11
0.5319380684485565
 21
-0.1749748927684294
 31
0.0
  0
LINE
  5
343
  8
0
 10
0.2117888245636038
 20
-0.1765765479326972
 30
0.0
 11
0.5319380684485565
 21
-0.1765765478977727
 31
0.0
  0
LINE
  5
344
  8
0
 10
0.2102857484823232
 20
-0.1879935727481523
 30
0.0
 11
0.5205210435938114
 21
-0.1879935727656146
 31
0.0
  0
LINE
  5
345
  8
0
 10
-0.4861886248495523
 20
0.0961581494574176
 30
0.0
 11
-0.2091624283094518
 21
-0.0637829996439422
 31
0.0
  0
LINE
  5
346
  8
0
 10
-0.4820097037133622
 20
0.0805622034446543
 30
0.0
 11
-0.2134526487215282
 21
-0.0744892845248131
 31
0.0
  0
LINE
  5
347
  8
0
 10
-0.4853877972892463
 20
0.0975452234825326
 30
0.0
 11
-0.2085442123710038
 21
-0.0622904947927481
 31
0.0
  0
LINE
  5
348
  8
0
 10
-0.2016436868209951
 20
-0.0641394857402219
 30
0.0
 11
0.2119996864165785
 21
-0.1749748927684294
 31
0.0
  0
LINE
  5
349
  8
0
 10
-0.2091624286325043
 20
-0.0637830004297456
 30
0.0
 11
0.211788824572335
 21
-0.1765765479501595
 31
0.0
  0
LINE
  5
34A
  8
0
 10
-0.2135692365199304
 20
-0.0744219725861939
 30
0.0
 11
0.2102857484823232
 21
-0.1879935727481523
 31
0.0
  0
LINE
  5
34B
  8
0
 10
-0.4861886248495523
 20
0.0961581494574176
 30
0.0
 11
-0.4820097037133622
 21
0.0805622034446543
 31
0.0
  0
LINE
  5
34C
  8
0
 10
0.5319380684485565
 20
-0.1765765478977727
 30
0.0
 11
0.5205210435938114
 21
-0.1879935727656146
 31
0.0
  0
LINE
  5
34D
  8
0
 10
-0.4861886248495523
 20
0.0961581494574176
 30
0.0
 11
-0.4853877972892463
 21
0.0975452234825326
 31
0.0
  0
LINE
  5
34E
  8
0
 10
0.2957815130378492
 20
0.2345596424160732
 30
0.0
 11
0.2898353065544995
 21
0.2254030659593383
 31
0.0
  0
LINE
  5
34F
  8
0
 10
0.2102857484823232
 20
-0.1879935727481523
 30
0.0
 11
0.2134054334054724
 21
-0.1642971921855377
 31
0.0
  0
LINE
  5
350
  8
0
 10
-0.2135692365199304
 20
-0.0744219725861939
 30
0.0
 11
-0.2044227724844915
 21
-0.0523404616947545
 31
0.0
  0
LINE
  5
351
  8
0
 10
0.1671740607292065
 20
0.3480644963829519
 30
0.0
 11
0.1721736461905436
 21
0.3581654641226606
 31
0.0
  0
LINE
  5
352
  8
0
 10
-0.6473736162858643
 20
0.376982719692981
 30
-0.0000000000821569
 11
-0.6473736162858643
 21
0.1348285511807745
 31
-0.0000000001031576
  0
SOLID
  5
353
  8
0
 10
-0.6586168686983968
 20
0.2022880656559693
 30
-0.0000000001031576
 11
-0.6361303638776974
 21
0.2022880656559693
 31
-0.0000000001031576
 12
-0.6473736162858643
 22
0.1348285511807745
 32
-0.0000000001031576
 13
-0.6473736162858643
 23
0.1348285511807745
 33
-0.0000000001031576
  0
LINE
  5
354
  8
0
 10
-0.6342621948563704
 20
0.3769827197104433
 30
-0.0000000000821569
 11
-0.5549703722784273
 21
0.4336541278901251
 31
-0.0000000000821569
  0
LINE
  5
355
  8
0
 10
-0.7405204578121868
 20
0.4336541278901251
 30
-0.0000000000821569
 11
-0.6612286352342438
 21
0.3769827197104433
 31
-0.0000000000821569
  0
LINE
  5
356
  8
0
 10
-0.6612286352342438
 20
0.3769827197104433
 30
-0.0000000000821569
 11
-0.6342621948563704
 21
0.3769827197104433
 31
-0.0000000000821569
  0
LINE
  5
357
  8
0
 10
-0.5549703722784273
 20
0.4336541278901251
 30
-0.0000000000821569
 11
-0.7405204578121868
 21
0.4336541278901251
 31
-0.0000000000821569
  0
LINE
  5
358
  8
0
 10
-0.5549703722784273
 20
0.5157696115815753
 30
-0.0000000000821569
 11
-0.7405204578121868
 21
0.5157696115815753
 31
-0.0000000000821569
  0
LINE
  5
359
  8
0
 10
-0.4389110647193832
 20
0.4617600592350329
 30
-0.0000000000821569
 11
-0.55473492337415
 21
0.5157696115815753
 31
-0.0000000000821569
  0
LINE
  5
35A
  8
0
 10
-0.5549703722784273
 20
0.4205713338424659
 30
-0.0000000000821569
 11
-0.5549703722784273
 21
0.4467369219377844
 31
-0.0000000000821569
  0
LINE
  5
35B
  8
0
 10
-0.5549703722784273
 20
0.4467369219377844
 30
-0.0000000000821569
 11
-0.5549703722784273
 21
0.5157696115815753
 31
-0.0000000000821569
  0
LINE
  5
35C
  8
0
 10
-0.4948190070784279
 20
0.3925222915745081
 30
-0.0000000000821569
 11
-0.4389110647193832
 21
0.3925222915745081
 31
-0.0000000000821569
  0
LINE
  5
35D
  8
0
 10
-0.4948190070784279
 20
0.3925222915745081
 30
-0.0000000000821569
 11
-0.5549703722784273
 21
0.4205713338424659
 31
-0.0000000000821569
  0
LINE
  5
35E
  8
0
 10
-0.4389110647193832
 20
0.4617600592350329
 30
-0.0000000000821569
 11
-0.4389110647193832
 21
0.3925222915745081
 31
-0.0000000000821569
  0
LINE
  5
35F
  8
0
 10
-0.7405204578121868
 20
0.4116895564048292
 30
-0.0000000000821569
 11
-0.7405204578121868
 21
0.5157696115815753
 31
-0.0000000000821569
  0
LINE
  5
360
  8
0
 10
-0.8446005129932984
 20
0.4116895564048292
 30
-0.0000000000821569
 11
-0.8446005129932984
 21
0.5157696115815753
 31
-0.0000000000821569
  0
LINE
  5
361
  8
0
 10
-0.7405204578121868
 20
0.4116895564048292
 30
-0.0000000000821569
 11
-0.8446005129932984
 21
0.4116895564048292
 31
-0.0000000000821569
  0
LINE
  5
362
  8
0
 10
-0.7405204578121868
 20
0.5157696115815753
 30
-0.0000000000821569
 11
-0.8446005129932984
 21
0.5157696115815753
 31
-0.0000000000821569
  0
LINE
  5
363
  8
0
 10
-0.8347872506442456
 20
0.5383273704940194
 30
-0.0000000000821569
 11
-0.8347872506442456
 21
0.5431277975180393
 31
-0.0000000000821569
  0
LINE
  5
364
  8
0
 10
-0.7503337201568741
 20
0.5383273704940194
 30
-0.0000000000821569
 11
-0.7503337201568741
 21
0.5431277975180393
 31
-0.0000000000821569
  0
LINE
  5
365
  8
0
 10
-0.7394584164337232
 20
0.5495000458062833
 30
-0.0000000000821569
 11
-0.845662554371762
 21
0.5495000458062833
 31
-0.0000000000821569
  0
LINE
  5
366
  8
0
 10
-0.7394584164337232
 20
0.5431277975180393
 30
-0.0000000000821569
 11
-0.845662554371762
 21
0.5431277975180393
 31
-0.0000000000821569
  0
LINE
  5
367
  8
0
 10
-0.7503337201568741
 20
0.5383273704940194
 30
-0.0000000000821569
 11
-0.8347872506442456
 21
0.5383273704940194
 31
-0.0000000000821569
  0
LINE
  5
368
  8
0
 10
-0.8307939750601747
 20
0.5157696115815753
 30
-0.0000000000821569
 11
-0.8307939750601747
 21
0.5383273704940194
 31
-0.0000000000821569
  0
LINE
  5
369
  8
0
 10
-0.7543269957453106
 20
0.5157696115815753
 30
-0.0000000000821569
 11
-0.7543269957453106
 21
0.5383273704940194
 31
-0.0000000000821569
  0
LINE
  5
36A
  8
0
 10
-0.845662554371762
 20
0.5495000458062833
 30
-0.0000000000821569
 11
-0.845662554371762
 21
0.5431277975180393
 31
-0.0000000000821569
  0
LINE
  5
36B
  8
0
 10
-0.7394584164337232
 20
0.5495000458062833
 30
-0.0000000000821569
 11
-0.7394584164337232
 21
0.5431277975180393
 31
-0.0000000000821569
  0
ENDSEC
  0
EOF
