  0
SECTION
  2
HEADER
  9
$ACADVER
  1
AC1009
  9
$INSBASE
 10
0.0
 20
0.0
 30
0.0
  9
$EXTMIN
 10
-0.2078579760749919
 20
-0.4553495666323073
 30
-0.0015258207003583
  9
$EXTMAX
 10
1.0003051909155971
 20
1.4162750365402019
 30
0.0000000349246037
  9
$LIMMIN
 10
0.0
 20
0.0
  9
$LIMMAX
 10
17.0
 20
11.0
  9
$ORTHOMODE
 70
     0
  9
$REGENMODE
 70
     1
  9
$FILLMODE
 70
     1
  9
$QTEXTMODE
 70
     0
  9
$MIRRTEXT
 70
     0
  9
$DRAGMODE
 70
     2
  9
$LTSCALE
 40
1.0
  9
$OSMODE
 70
   695
  9
$ATTMODE
 70
     1
  9
$TEXTSIZE
 40
0.2
  9
$TRACEWID
 40
0.05
  9
$TEXTSTYLE
  7
STANDARD
  9
$CLAYER
  8
0
  9
$CELTYPE
  6
BYLAYER
  9
$CECOLOR
 62
   256
  9
$DIMSCALE
 40
1.0
  9
$DIMASZ
 40
0.12
  9
$DIMEXO
 40
0.05
  9
$DIMDLI
 40
0.5
  9
$DIMRND
 40
0.0
  9
$DIMDLE
 40
0.0
  9
$DIMEXE
 40
0.1
  9
$DIMTP
 40
0.1
  9
$DIMTM
 40
0.1
  9
$DIMTXT
 40
0.12
  9
$DIMCEN
 40
0.0
  9
$DIMTSZ
 40
0.0
  9
$DIMTOL
 70
     0
  9
$DIMLIM
 70
     0
  9
$DIMTIH
 70
     1
  9
$DIMTOH
 70
     1
  9
$DIMSE1
 70
     0
  9
$DIMSE2
 70
     0
  9
$DIMTAD
 70
     0
  9
$DIMZIN
 70
     7
  9
$DIMBLK
  1

  9
$DIMASO
 70
     1
  9
$DIMSHO
 70
     1
  9
$DIMPOST
  1

  9
$DIMAPOST
  1
mm
  9
$DIMALT
 70
     0
  9
$DIMALTD
 70
     2
  9
$DIMALTF
 40
25.399999999999999
  9
$DIMLFAC
 40
1.0
  9
$DIMTOFL
 70
     0
  9
$DIMTVP
 40
0.0
  9
$DIMTIX
 70
     0
  9
$DIMSOXD
 70
     0
  9
$DIMSAH
 70
     0
  9
$DIMBLK1
  1

  9
$DIMBLK2
  1

  9
$DIMSTYLE
  2
AM_ANSI
  9
$DIMCLRD
 70
   256
  9
$DIMCLRE
 70
   256
  9
$DIMCLRT
 70
     2
  9
$DIMTFAC
 40
0.71
  9
$DIMGAP
 40
0.06
  9
$LUNITS
 70
     2
  9
$LUPREC
 70
     4
  9
$SKETCHINC
 40
0.1
  9
$FILLETRAD
 40
0.0
  9
$AUNITS
 70
     0
  9
$AUPREC
 70
     0
  9
$MENU
  1
.
  9
$ELEVATION
 40
0.0
  9
$PELEVATION
 40
0.0
  9
$THICKNESS
 40
0.0
  9
$LIMCHECK
 70
     0
  9
$BLIPMODE
 70
     0
  9
$CHAMFERA
 40
0.125
  9
$CHAMFERB
 40
0.125
  9
$SKPOLY
 70
     0
  9
$TDCREATE
 40
2456043.8901111688
  9
$TDUPDATE
 40
2456043.892614306
  9
$TDINDWG
 40
0.0025131713
  9
$TDUSRTIMER
 40
0.0025131134
  9
$USRTIMER
 70
     1
  9
$ANGBASE
 50
0.0
  9
$ANGDIR
 70
     0
  9
$PDMODE
 70
     0
  9
$PDSIZE
 40
0.0
  9
$PLINEWID
 40
0.0
  9
$COORDS
 70
     1
  9
$SPLFRAME
 70
     0
  9
$SPLINETYPE
 70
     6
  9
$SPLINESEGS
 70
     8
  9
$ATTDIA
 70
     1
  9
$ATTREQ
 70
     1
  9
$HANDLING
 70
     1
  9
$HANDSEED
  5
32A
  9
$SURFTAB1
 70
     6
  9
$SURFTAB2
 70
     6
  9
$SURFTYPE
 70
     6
  9
$SURFU
 70
     6
  9
$SURFV
 70
     6
  9
$UCSNAME
  2

  9
$UCSORG
 10
0.0
 20
0.0
 30
0.0
  9
$UCSXDIR
 10
1.0
 20
0.0
 30
0.0
  9
$UCSYDIR
 10
0.0
 20
1.0
 30
0.0
  9
$PUCSNAME
  2

  9
$PUCSORG
 10
0.0
 20
0.0
 30
0.0
  9
$PUCSXDIR
 10
1.0
 20
0.0
 30
0.0
  9
$PUCSYDIR
 10
0.0
 20
1.0
 30
0.0
  9
$USERI1
 70
     0
  9
$USERI2
 70
     0
  9
$USERI3
 70
     0
  9
$USERI4
 70
     0
  9
$USERI5
 70
     0
  9
$USERR1
 40
0.0
  9
$USERR2
 40
0.0
  9
$USERR3
 40
0.0
  9
$USERR4
 40
0.0
  9
$USERR5
 40
0.0
  9
$WORLDVIEW
 70
     1
  9
$SHADEDGE
 70
     3
  9
$SHADEDIF
 70
    70
  9
$TILEMODE
 70
     1
  9
$MAXACTVP
 70
    64
  9
$PLIMCHECK
 70
     0
  9
$PEXTMIN
 10
0.0
 20
0.0
 30
0.0
  9
$PEXTMAX
 10
0.0
 20
0.0
 30
0.0
  9
$PLIMMIN
 10
0.0
 20
0.0
  9
$PLIMMAX
 10
12.0
 20
9.0
  9
$UNITMODE
 70
     0
  9
$VISRETAIN
 70
     1
  9
$PLINEGEN
 70
     0
  9
$PSLTSCALE
 70
     1
  0
ENDSEC
  0
SECTION
  2
TABLES
  0
TABLE
  2
VPORT
 70
     1
  0
VPORT
  2
*ACTIVE
 70
     0
 10
0.0
 20
0.0
 11
1.0
 21
1.0
 12
0.5538074727019904
 22
0.6889793482769484
 13
0.0
 23
0.0
 14
0.125
 24
0.125
 15
1.0
 25
1.0
 16
0.0
 26
0.0
 36
1.0
 17
0.0
 27
0.0
 37
0.0
 40
2.5256342885862111
 41
1.4237668161434971
 42
50.0
 43
0.0
 44
0.0
 50
0.0
 51
0.0
 71
     0
 72
  1000
 73
     1
 74
     3
 75
     0
 76
     1
 77
     0
 78
     0
  0
ENDTAB
  0
TABLE
  2
LTYPE
 70
    17
  0
LTYPE
  2
CONTINUOUS
 70
     0
  3
Solid line
 72
    65
 73
     0
 40
0.0
  0
LTYPE
  2
HIDDEN
 70
     0
  3
Hidden __ __ __ __ __ __ __ __ __ __ __ __ __ _
 72
    65
 73
     2
 40
0.375
 49
0.25
 49
-0.125
  0
LTYPE
  2
PHANTOM2
 70
     0
  3
Phantom (.5x) ___ _ _ ___ _ _ ___ _ _ ___ _ _
 72
    65
 73
     6
 40
1.25
 49
0.625
 49
-0.125
 49
0.125
 49
-0.125
 49
0.125
 49
-0.125
  0
LTYPE
  2
CENTER
 70
     0
  3
Center ____ _ ____ _ ____ _ ____ _ ____ _ ____
 72
    65
 73
     4
 40
2.0
 49
1.25
 49
-0.25
 49
0.25
 49
-0.25
  0
LTYPE
  2
AM_ISO02W050
 70
     0
  3
__ __ __ __ __ __ __ __ __ __ __ __ __ __ __
 72
    65
 73
     2
 40
7.5
 49
6.0
 49
-1.5
  0
LTYPE
  2
AM_ISO08W050
 70
     0
  3
____ . ____ . ____ . ____ . ____ . ____ . ____
 72
    65
 73
     4
 40
18.0
 49
12.0
 49
-1.5
 49
3.0
 49
-1.5
  0
LTYPE
  2
AM_ISO09W050
 70
     0
  3
_____ . . _____ . . _____ . . ____ .. ____
 72
    65
 73
     6
 40
22.5
 49
12.0
 49
-1.5
 49
3.0
 49
-1.5
 49
3.0
 49
-1.5
  0
LTYPE
  2
AMCONSTR
 70
     0
  3
_______________________
 72
    65
 73
     2
 40
9999.0
 49
9999.0
 49
0.0
  0
LTYPE
  2
AM_ISO08W050X2
 70
     0
  3
__ . __ . __ . __ . __ . __
 72
    65
 73
     4
 40
9.0
 49
6.0
 49
-0.75
 49
1.5
 49
-0.75
  0
LTYPE
  2
AM_ISO02W050X2
 70
     0
  3
 _ _ _ _ _ _ _ _ _ _ _ _
 72
    65
 73
     2
 40
3.75
 49
3.0
 49
-0.75
  0
LTYPE
  2
AMZIGZAG
 70
     0
  3
/\/-/\/-/\/-/\/-/\/-/\/
 72
    65
 73
     2
 40
11.0001
 49
0.0001
 49
-11.0
  0
LTYPE
  2
CENTER2
 70
     0
  3
Center (.5x) ___ _ ___ _ ___ _ ___ _ ___ _ ___
 72
    65
 73
     4
 40
1.125
 49
0.75
 49
-0.125
 49
0.125
 49
-0.125
  0
LTYPE
  2
HIDDEN2
 70
     0
  3
Hidden (.5x) _ _ _ _ _ _ _ _ _ _ _ _ _ _ _ _ _
 72
    65
 73
     2
 40
0.1875
 49
0.125
 49
-0.0625
  0
LTYPE
  2
AMZIGZAG2
 70
     0
  3
/\/-/\/-/\/-/\/-/\/-/\/
 72
    65
 73
     2
 40
0.4401
 49
0.0001
 49
-0.4400000000000001
  0
LTYPE
  2
ACANSTGB
 70
     0
  3
__ . . __ . .
 72
    65
 73
     6
 40
0.35433070866
 49
0.15748031496
 49
-0.03937007874
 49
0.03937007874
 49
-0.03937007874
 49
0.03937007874
 49
-0.03937007874
  0
LTYPE
  2
ACANSTGL
 70
     0
  3
_ _ _ _ _
 72
    65
 73
     2
 40
0.11811023622
 49
0.07874015748
 49
-0.03937007874
  0
ENDTAB
  0
TABLE
  2
LAYER
 70
     2
  0
LAYER
  2
0
 70
     0
 62
     7
  6
CONTINUOUS
  0
LAYER
  2
FLOW_LABEL_POINTER
 70
     0
 62
     4
  6
CONTINUOUS
  0
ENDTAB
  0
TABLE
  2
STYLE
 70
    10
  0
STYLE
  2
STANDARD
 70
     0
 40
0.0
 41
1.0
 50
0.0
 71
     0
 42
0.2
  3
ROMANS.SHX
  4

  0
STYLE
  2
ANNOTATIVE
 70
     0
 40
0.0
 41
1.0
 50
0.0
 71
     0
 42
0.2
  3
txt
  4

  0
STYLE
  2

 70
     1
 40
0.0
 41
1.0
 50
0.0
 71
     0
 42
0.2
  3
genltshp.shx
  4

  0
STYLE
  2
ACANSTS
 70
     0
 40
1.0
 41
1.0
 50
0.0
 71
     0
 42
0.2
  3
romans.shx
  4

  0
STYLE
  2
ACANSGDT
 70
     0
 40
0.0
 41
1.0
 50
0.0
 71
     0
 42
0.2
  3
amgdt.shx
  4

  0
STYLE
  2
USER1
 70
     0
 40
0.0
 41
1.0
 50
0.0
 71
     0
 42
0.2
  3
TXT.SHX
  4

  0
STYLE
  2
USER2
 70
     0
 40
0.0
 41
1.0
 50
0.0
 71
     0
 42
0.2
  3
SIMPLEX.SHX
  4

  0
STYLE
  2
USER3
 70
     0
 40
0.0
 41
1.0
 50
0.0
 71
     0
 42
0.2
  3
ITALIC.SHX
  4

  0
STYLE
  2
NOTE
 70
     0
 40
0.3
 41
0.8
 50
0.0
 71
     0
 42
0.3
  3
txt
  4

  0
STYLE
  2
CAD
 70
     0
 40
0.0
 41
1.0
 50
0.0
 71
     0
 42
0.1875
  3
CAD.SHX
  4

  0
ENDTAB
  0
TABLE
  2
VIEW
 70
     0
  0
ENDTAB
  0
TABLE
  2
UCS
 70
     0
  0
ENDTAB
  0
TABLE
  2
APPID
 70
    18
  0
APPID
  2
ACAD
 70
     0
  0
APPID
  2
ACADANNOPO
 70
     0
  0
APPID
  2
ACADANNOTATIVE
 70
     0
  0
APPID
  2
ACAD_DSTYLE_DIMJAG
 70
     0
  0
APPID
  2
ACAD_DSTYLE_DIMTALN
 70
     0
  0
APPID
  2
ACAD_MLEADERVER
 70
     0
  0
APPID
  2
ACAD_NAV_VCDISPLAY
 70
     0
  0
APPID
  2
MCAD_NO_VIS
 70
     0
  0
APPID
  2
ACAD_TEMP_GRAPHIC
 70
     0
  0
APPID
  2
ACATTRIBSERVICES
 70
     0
  0
APPID
  2
DESIGNERASSEMBLIES
 70
     0
  0
APPID
  2
ACAD_DSTYLE_DIMBREAK
 70
     0
  0
APPID
  2
ACAD_PSEXT
 70
     0
  0
APPID
  2
ACAD_DSTYLE_DIMJOGGED_JOGA
 70
     0
  0
APPID
  2
AD_DRAW
 70
     0
  0
APPID
  2
ACADM_DIM_EDIT
 70
     0
  0
APPID
  2
AMDT_DM_ADJ
 70
     0
  0
APPID
  2
ACAD_EXEMPT_FROM_CAD_STANDARDS
 70
     0
  0
ENDTAB
  0
TABLE
  2
DIMSTYLE
 70
    10
  0
DIMSTYLE
  2
STANDARD
 70
     0
  3

  4

  5

  6

  7

 40
1.0
 41
0.18
 42
0.0625
 43
0.38
 44
0.18
 45
0.0
 46
0.0
 47
0.0
 48
0.0
140
0.18
141
0.09
142
0.0
143
25.399999999999999
144
1.0
145
0.0
146
1.0
147
0.09
 71
     0
 72
     0
 73
     1
 74
     1
 75
     0
 76
     0
 77
     0
 78
     0
170
     0
171
     2
172
     0
173
     0
174
     0
175
     0
176
     0
177
     0
178
     0
  0
DIMSTYLE
  2
ANNOTATIVE
 70
     0
  3

  4

  5

  6

  7

 40
0.0
 41
0.18
 42
0.0625
 43
0.38
 44
0.18
 45
0.0
 46
0.0
 47
0.0
 48
0.0
140
0.18
141
0.09
142
0.0
143
25.399999999999999
144
1.0
145
0.0
146
1.0
147
0.09
 71
     0
 72
     0
 73
     1
 74
     1
 75
     0
 76
     0
 77
     0
 78
     0
170
     0
171
     2
172
     0
173
     0
174
     0
175
     0
176
     0
177
     0
178
     0
  0
DIMSTYLE
  2
AM_ANSI
 70
     0
  3

  4
mm
  5

  6

  7

 40
1.0
 41
0.12
 42
0.05
 43
0.5
 44
0.1
 45
0.0
 46
0.0
 47
0.1
 48
0.1
140
0.12
141
0.0
142
0.0
143
25.399999999999999
144
1.0
145
0.0
146
0.71
147
0.06
 71
     0
 72
     0
 73
     1
 74
     1
 75
     0
 76
     0
 77
     0
 78
     7
170
     0
171
     2
172
     0
173
     0
174
     0
175
     0
176
   256
177
   256
178
     2
  0
DIMSTYLE
  2
AM_ANSI$3
 70
     0
  3

  4
mm
  5

  6

  7

 40
1.0
 41
0.12
 42
0.05
 43
0.5
 44
0.1
 45
0.0
 46
0.0
 47
0.1
 48
0.1
140
0.12
141
0.0
142
0.0
143
25.399999999999999
144
1.0
145
0.0
146
0.71
147
0.06
 71
     0
 72
     0
 73
     1
 74
     1
 75
     0
 76
     0
 77
     0
 78
     7
170
     0
171
     2
172
     0
173
     0
174
     0
175
     0
176
   256
177
   256
178
     2
  0
DIMSTYLE
  2
AM_ANSI$4
 70
     0
  3

  4
mm
  5

  6

  7

 40
1.0
 41
0.12
 42
0.05
 43
0.5
 44
0.1
 45
0.0
 46
0.0
 47
0.1
 48
0.1
140
0.12
141
0.0
142
0.0
143
25.399999999999999
144
1.0
145
0.0
146
0.71
147
0.06
 71
     0
 72
     0
 73
     1
 74
     1
 75
     0
 76
     0
 77
     0
 78
     7
170
     0
171
     2
172
     0
173
     0
174
     0
175
     0
176
   256
177
   256
178
     2
  0
DIMSTYLE
  2
AM_ANSI$7
 70
     0
  3

  4
mm
  5

  6

  7

 40
1.0
 41
0.12
 42
0.05
 43
0.5
 44
0.1
 45
0.0
 46
0.0
 47
0.1
 48
0.1
140
0.12
141
0.0
142
0.0
143
25.399999999999999
144
1.0
145
0.0
146
0.71
147
0.06
 71
     0
 72
     0
 73
     1
 74
     1
 75
     0
 76
     0
 77
     0
 78
     7
170
     0
171
     2
172
     0
173
     0
174
     0
175
     0
176
   256
177
   256
178
     2
  0
DIMSTYLE
  2
AM_ANSI$SF
 70
     0
  3

  4
mm
  5

  6

  7

 40
1.0
 41
0.12
 42
0.05
 43
0.5
 44
0.1
 45
0.0
 46
0.0
 47
0.1
 48
0.1
140
0.12
141
0.0
142
0.0
143
25.399999999999999
144
1.0
145
0.0
146
0.71
147
0.06
 71
     0
 72
     0
 73
     1
 74
     1
 75
     1
 76
     1
 77
     0
 78
     7
170
     0
171
     2
172
     0
173
     0
174
     0
175
     0
176
   256
177
   256
178
     2
  0
DIMSTYLE
  2
AM_ANSI$SH
 70
     0
  3

  4
mm
  5

  6
GENAXEH
  7

 40
1.0
 41
0.12
 42
0.05
 43
0.5
 44
0.1
 45
0.0
 46
0.0
 47
0.1
 48
0.1
140
0.12
141
0.0
142
0.0
143
25.399999999999999
144
1.0
145
0.0
146
0.71
147
0.06
 71
     0
 72
     0
 73
     1
 74
     1
 75
     1
 76
     1
 77
     0
 78
     7
170
     0
171
     2
172
     0
173
     1
174
     0
175
     0
176
   256
177
   256
178
     2
  0
DIMSTYLE
  2
64
 70
     0
  3

  4

  5

  6

  7

 40
64.0
 41
0.125
 42
0.0625
 43
0.375
 44
0.0625
 45
0.0
 46
0.0
 47
0.0
 48
0.0
140
0.125
141
0.0625
142
0.0
143
25.399999999999999
144
1.0
145
0.0
146
1.0
147
0.0625
 71
     0
 72
     0
 73
     0
 74
     0
 75
     0
 76
     0
 77
     1
 78
     3
170
     0
171
     2
172
     1
173
     0
174
     0
175
     0
176
   256
177
   256
178
   256
  0
ENDTAB
  0
ENDSEC
  0
SECTION
  2
BLOCKS
  0
BLOCK
  8
0
  2
$MODEL_SPACE
 70
     0
 10
0.0
 20
0.0
 30
0.0
  3
$MODEL_SPACE
  1

  0
ENDBLK
  5
21
  8
0
  0
BLOCK
 67
     1
  8
0
  2
$PAPER_SPACE
 70
     0
 10
0.0
 20
0.0
 30
0.0
  3
$PAPER_SPACE
  1

  0
ENDBLK
  5
5B
 67
     1
  8
0
  0
BLOCK
  8
0
  2
GENAXEH
 70
     0
 10
0.0
 20
0.0
 30
0.0
  3
GENAXEH
  1

  0
LINE
  5
1FF
  8
0
 10
-1.0
 20
0.0
 30
0.0
 11
1.0
 21
0.0
 31
0.0
  0
ENDBLK
  5
201
  8
0
  0
BLOCK
  8
0
  2
A$C0B055F64
 70
     0
 10
0.0
 20
0.0
 30
0.0
  3
A$C0B055F64
  1

  0
LINE
  5
21C
  8
0
 10
0.3433497243750025
 20
0.8721086327859666
 30
0.0
 11
0.3433497243750025
 21
0.8583746391814202
 31
0.0
  0
LINE
  5
21D
  8
0
 10
0.3982856988950516
 20
0.6866997188189999
 30
0.0
 11
0.3982856988950516
 21
0.6454977379180491
 31
0.0
  0
LINE
  5
21E
  8
0
 10
0.33991622596659
 20
0.5218917952443009
 30
0.0
 11
0.33991622596659
 21
0.5081578016397544
 31
0.0
  0
LINE
  5
21F
  8
0
 10
0.3433497243750025
 20
0.7485026901413221
 30
0.0
 11
0.3433497243750025
 21
0.7347686965076719
 31
0.0
  0
LINE
  5
220
  8
0
 10
0.2609457626022049
 20
0.9785470834176521
 30
0.0
 11
0.2609457626022049
 21
0.9373451025458052
 31
0.0
  0
LINE
  5
221
  8
0
 10
0.3021477434886037
 20
0.8881184791680425
 30
0.0
 11
0.3021477434886037
 21
0.8721086327859666
 31
0.0
  0
LINE
  5
222
  8
0
 10
0.2815467530454043
 20
0.8881184791680425
 30
0.0
 11
0.2654270883140271
 21
0.9373451025458052
 31
0.0
  0
LINE
  5
223
  8
0
 10
0.315881737114978
 20
0.8583746391814202
 30
0.0
 11
0.315881737114978
 21
0.7485026901413221
 31
0.0
  0
LINE
  5
224
  8
0
 10
0.315881737114978
 20
0.7347686965076719
 30
0.0
 11
0.315881737114978
 21
0.6866997188189999
 31
0.0
  0
LINE
  5
225
  8
0
 10
0.315881737114978
 20
0.6454977379180491
 30
0.0
 11
0.315881737114978
 21
0.5218917952443009
 31
0.0
  0
LINE
  5
226
  8
0
 10
0.315881737114978
 20
0.5081578016397544
 30
0.0
 11
0.2805657534991042
 21
0.3433498780650552
 31
0.0
  0
LINE
  5
227
  8
0
 10
0.2540787657853798
 20
0.0961379927466624
 30
0.0
 11
0.2540787657853798
 21
0.0000000373402145
 31
0.0
  0
LINE
  5
228
  8
0
 10
0.2987142450801912
 20
0.3433498780650552
 30
0.0
 11
0.2987142450801912
 21
0.3296158844605088
 31
0.0
  0
LINE
  5
229
  8
0
 10
0.2815467530454043
 20
0.2197439354204107
 30
0.0
 11
0.2815467530454043
 21
0.2060099417867605
 31
0.0
  0
LINE
  5
22A
  8
0
 10
0.2815467530454043
 20
0.1098719863803126
 30
0.0
 11
0.2815467530454043
 21
0.0961379927466624
 31
0.0
  0
LINE
  5
22B
  8
0
 10
0.2776227548674797
 20
0.3296158844605088
 30
0.0
 11
0.2540787657853798
 21
0.2197439354204107
 31
0.0
  0
LINE
  5
22C
  8
0
 10
0.2609457626022049
 20
0.2060099417867605
 30
0.0
 11
0.2609457626022049
 21
0.1098719863803126
 31
0.0
  0
LINE
  5
22D
  8
0
 10
0.0686698517965851
 20
0.7485026901413221
 30
0.0
 11
0.0686698517965851
 21
0.7347686965076719
 31
0.0
  0
LINE
  5
22E
  8
0
 10
0.0686698517965851
 20
0.8583746391814202
 30
0.0
 11
0.0686698517965851
 21
0.7485026901413221
 31
0.0
  0
LINE
  5
22F
  8
0
 10
0.0686698517965851
 20
0.8721086327859666
 30
0.0
 11
0.0686698517965851
 21
0.8583746391814202
 31
0.0
  0
LINE
  5
230
  8
0
 10
0.1510738135693828
 20
0.2060099417867605
 30
0.0
 11
0.1510738135693828
 21
0.1098719863803126
 31
0.0
  0
LINE
  5
231
  8
0
 10
0.134396821304108
 20
0.3296158844605088
 30
0.0
 11
0.1579408103862079
 21
0.2197439354204107
 31
0.0
  0
LINE
  5
232
  8
0
 10
0.1304728231261834
 20
0.1098719863803126
 30
0.0
 11
0.1304728231261834
 21
0.0961379927466624
 31
0.0
  0
LINE
  5
233
  8
0
 10
0.1304728231261834
 20
0.2197439354204107
 30
0.0
 11
0.1304728231261834
 21
0.2060099417867605
 31
0.0
  0
LINE
  5
234
  8
0
 10
0.1133053310913965
 20
0.3433498780650552
 30
0.0
 11
0.1133053310913965
 21
0.3296158844605088
 31
0.0
  0
LINE
  5
235
  8
0
 10
0.0721033502049977
 20
0.5218917952443009
 30
0.0
 11
0.0721033502049977
 21
0.5081578016397544
 31
0.0
  0
LINE
  5
236
  8
0
 10
0.1579408103862079
 20
0.0961379927466624
 30
0.0
 11
0.1579408103862079
 21
0.0000000373402145
 31
0.0
  0
LINE
  5
237
  8
0
 10
0.0961378390566097
 20
0.5081578016397544
 30
0.0
 11
0.1314538226724835
 21
0.3433498780650552
 31
0.0
  0
LINE
  5
238
  8
0
 10
0.0961378390566097
 20
0.6454977379180491
 30
0.0
 11
0.0961378390566097
 21
0.5218917952443009
 31
0.0
  0
LINE
  5
239
  8
0
 10
0.0961378390566097
 20
0.7347686965076719
 30
0.0
 11
0.0961378390566097
 21
0.6866997188189999
 31
0.0
  0
LINE
  5
23A
  8
0
 10
0.0686698517965851
 20
0.7691036805917975
 30
0.0
 11
0.0961378390566097
 21
0.7691036805917975
 31
0.0
  0
LINE
  5
23B
  8
0
 10
0.0961378390566097
 20
0.8583746391814202
 30
0.0
 11
0.0961378390566097
 21
0.7485026901413221
 31
0.0
  0
LINE
  5
23C
  8
0
 10
0.0549358581629349
 20
0.7485026901413221
 30
0.0
 11
0.3433497243750025
 21
0.7485026901413221
 31
0.0
  0
LINE
  5
23D
  8
0
 10
0.0686698517965851
 20
0.8858426264196168
 30
0.0
 11
0.0549358581629349
 21
0.8858426264196168
 31
0.0
  0
LINE
  5
23E
  8
0
 10
0.1304728231261834
 20
0.8881184791680425
 30
0.0
 11
0.1465924878575606
 21
0.9373451025458052
 31
0.0
  0
LINE
  5
23F
  8
0
 10
-0.0000001163498382
 20
0.7759706773795188
 30
0.0
 11
0.0549358581629349
 21
0.7759706773795188
 31
0.0
  0
LINE
  5
240
  8
0
 10
-0.0000001163498382
 20
0.8583746391814202
 30
0.0
 11
0.0549358581629349
 21
0.8583746391814202
 31
0.0
  0
LINE
  5
241
  8
0
 10
0.0549358581629349
 20
0.8858426264196168
 30
0.0
 11
0.0549358581629349
 21
0.7485026901413221
 31
0.0
  0
LINE
  5
242
  8
0
 10
-0.0000001163498382
 20
0.8583746391814202
 30
0.0
 11
-0.0000001163498382
 21
0.7759706773795188
 31
0.0
  0
LINE
  5
243
  8
0
 10
0.0137338772765361
 20
0.6866997188189999
 30
0.0
 11
0.0137338772765361
 21
0.6454977379180491
 31
0.0
  0
LINE
  5
244
  8
0
 10
0.0686698517965851
 20
0.8858426264196168
 30
0.0
 11
0.0686698517965851
 21
0.8721086327859666
 31
0.0
  0
LINE
  5
245
  8
0
 10
0.1098718326829839
 20
0.8881184791680425
 30
0.0
 11
0.1098718326829839
 21
0.8721086327859666
 31
0.0
  0
LINE
  5
246
  8
0
 10
0.1510738135693828
 20
0.9785470834176521
 30
0.0
 11
0.1510738135693828
 21
0.9373451025458052
 31
0.0
  0
LINE
  5
247
  8
0
 10
0.1510738135693828
 20
0.9785470834176521
 30
0.0
 11
0.2609457626022049
 21
0.978547083446756
 31
0.0
  0
LINE
  5
248
  8
0
 10
0.1579408103862079
 20
0.0000000373402145
 30
0.0
 11
0.2540787657853798
 21
0.0000000373402145
 31
0.0
  0
LINE
  5
249
  8
0
 10
0.1304728231261834
 20
0.1098719863803126
 30
0.0
 11
0.2815467530454043
 21
0.1098719864094164
 31
0.0
  0
LINE
  5
24A
  8
0
 10
0.2815467530454043
 20
0.1098719864094164
 30
0.0
 11
0.2815467530454043
 21
0.0961379927466624
 31
0.0
  0
LINE
  5
24B
  8
0
 10
0.2815467530454043
 20
0.0961379927466624
 30
0.0
 11
0.1304728231261834
 21
0.0961379927466624
 31
0.0
  0
LINE
  5
24C
  8
0
 10
0.1304728231261834
 20
0.0961379927466624
 30
0.0
 11
0.1304728231261834
 21
0.1098719863512088
 31
0.0
  0
LINE
  5
24D
  8
0
 10
0.1304728231261834
 20
0.2197439354204107
 30
0.0
 11
0.2815467530454043
 21
0.2197439354204107
 31
0.0
  0
LINE
  5
24E
  8
0
 10
0.2815467530454043
 20
0.2197439354204107
 30
0.0
 11
0.2815467530454043
 21
0.2060099418158643
 31
0.0
  0
LINE
  5
24F
  8
0
 10
0.2815467530454043
 20
0.2060099418158643
 30
0.0
 11
0.1304728231261834
 21
0.2060099417867605
 31
0.0
  0
LINE
  5
250
  8
0
 10
0.1304728231261834
 20
0.2060099417867605
 30
0.0
 11
0.1304728231334593
 21
0.2197439353913069
 31
0.0
  0
LINE
  5
251
  8
0
 10
0.1133053310913965
 20
0.3433498780650552
 30
0.0
 11
0.2987142450801912
 21
0.3433498780650552
 31
0.0
  0
LINE
  5
252
  8
0
 10
0.2987142450801912
 20
0.3433498780650552
 30
0.0
 11
0.2987142450801912
 21
0.3296158844605088
 31
0.0
  0
LINE
  5
253
  8
0
 10
0.2987142450801912
 20
0.3296158844605088
 30
0.0
 11
0.1133053310986725
 21
0.329615884431405
 31
0.0
  0
LINE
  5
254
  8
0
 10
0.1133053310986725
 20
0.329615884431405
 30
0.0
 11
0.1133053310986725
 21
0.3433498780359514
 31
0.0
  0
LINE
  5
255
  8
0
 10
0.0721033502049977
 20
0.5218917952443009
 30
0.0
 11
0.33991622596659
 21
0.5218917952443009
 31
0.0
  0
LINE
  5
256
  8
0
 10
0.33991622596659
 20
0.5218917952443009
 30
0.0
 11
0.33991622596659
 21
0.5081578016397544
 31
0.0
  0
LINE
  5
257
  8
0
 10
0.33991622596659
 20
0.5081578016397544
 30
0.0
 11
0.0721033502122737
 21
0.5081578016106505
 31
0.0
  0
LINE
  5
258
  8
0
 10
0.0721033502122737
 20
0.5081578016106505
 30
0.0
 11
0.0721033502122737
 21
0.5218917952151969
 31
0.0
  0
LINE
  5
259
  8
0
 10
0.0137338772765361
 20
0.6454977379180491
 30
0.0
 11
0.3982856988877756
 21
0.645497737947153
 31
0.0
  0
LINE
  5
25A
  8
0
 10
0.3982856988877756
 20
0.645497737947153
 30
0.0
 11
0.3982856988877756
 21
0.6866997188189999
 31
0.0
  0
LINE
  5
25B
  8
0
 10
0.3982856988877756
 20
0.6866997188189999
 30
0.0
 11
0.0137338772765361
 21
0.6866997188189999
 31
0.0
  0
LINE
  5
25C
  8
0
 10
0.0137338772765361
 20
0.6866997188189999
 30
0.0
 11
0.013733877283812
 21
0.6454977379180491
 31
0.0
  0
LINE
  5
25D
  8
0
 10
0.0686698517965851
 20
0.7347686965076719
 30
0.0
 11
0.3433497243750025
 21
0.7347686965076719
 31
0.0
  0
LINE
  5
25E
  8
0
 10
0.3433497243750025
 20
0.7347686965076719
 30
0.0
 11
0.3433497243750025
 21
0.7485026901413221
 31
0.0
  0
LINE
  5
25F
  8
0
 10
0.0686698517965851
 20
0.7485026901413221
 30
0.0
 11
0.0686698517965851
 21
0.7347686965076719
 31
0.0
  0
LINE
  5
260
  8
0
 10
0.1098718326829839
 20
0.8881184791680425
 30
0.0
 11
0.3021477434886037
 21
0.8881184791680425
 31
0.0
  0
LINE
  5
261
  8
0
 10
0.3021477434886037
 20
0.8881184791680425
 30
0.0
 11
0.3021477434886037
 21
0.8721086327859666
 31
0.0
  0
LINE
  5
262
  8
0
 10
0.0686698517965851
 20
0.8721086327859666
 30
0.0
 11
0.3433497243822785
 21
0.8721086327568627
 31
0.0
  0
LINE
  5
263
  8
0
 10
0.0686698517965851
 20
0.8583746391814202
 30
0.0
 11
0.3433497243822785
 21
0.8583746391814202
 31
0.0
  0
LINE
  5
264
  8
0
 10
0.1465924878575606
 20
0.9373451025458052
 30
0.0
 11
0.2654270883140271
 21
0.9373451025458052
 31
0.0
  0
LINE
  5
265
  8
0
 10
0.1446051630846341
 20
0.9312761619221419
 30
0.0
 11
0.2674144130869536
 21
0.9312761619221419
 31
0.0
  0
ENDBLK
  5
266
  8
0
  0
ENDSEC
  0
SECTION
  2
ENTITIES
  0
LINE
  5
290
  8
0
 10
0.1430192168980721
 20
0.4358785035240338
 30
0.0
 11
0.1430192168980721
 21
0.4218434158300945
 31
0.0
  0
LINE
  5
291
  8
0
 10
0.1991595677779262
 20
0.2464048193435625
 30
0.0
 11
0.1991595677779262
 21
0.2042995561725186
 31
0.0
  0
LINE
  5
292
  8
0
 10
0.1395104449671518
 20
0.0779837666891292
 30
0.0
 11
0.1395104449671518
 21
0.0639486789951899
 31
0.0
  0
LINE
  5
293
  8
0
 10
0.1430192168980721
 20
0.3095627140703863
 30
0.0
 11
0.1430192168980721
 21
0.295527626346705
 31
0.0
  0
LINE
  5
294
  8
0
 10
0.0588086905857264
 20
0.5446504333528216
 30
0.0
 11
0.0588086905857264
 21
0.5025451702115199
 31
0.0
  0
LINE
  5
295
  8
0
 10
0.1009139537418991
 20
0.4522393381369573
 30
0.0
 11
0.1009139537418991
 21
0.4358785035240338
 31
0.0
  0
LINE
  5
296
  8
0
 10
0.0798613221638128
 20
0.4522393381369573
 30
0.0
 11
0.06338826162395
 21
0.5025451702115199
 31
0.0
  0
LINE
  5
297
  8
0
 10
0.114949041458145
 20
0.4218434158300945
 30
0.0
 11
0.114949041458145
 21
0.3095627140703863
 31
0.0
  0
LINE
  5
298
  8
0
 10
0.114949041458145
 20
0.295527626346705
 30
0.0
 11
0.114949041458145
 21
0.2464048193435625
 31
0.0
  0
LINE
  5
299
  8
0
 10
0.114949041458145
 20
0.2042995561725186
 30
0.0
 11
0.114949041458145
 21
0.0779837666891292
 31
0.0
  0
LINE
  5
29A
  8
0
 10
0.114949041458145
 20
0.0639486789951899
 30
0.0
 11
0.0788588158967734
 21
-0.1044723736592434
 31
0.0
  0
LINE
  5
29B
  8
0
 10
0.0517911467238857
 20
-0.3571039525962804
 30
0.0
 11
0.0517911467238857
 21
-0.4553495666323073
 31
0.0
  0
LINE
  5
29C
  8
0
 10
0.0974051818109788
 20
-0.1044723736592434
 30
0.0
 11
0.0974051818109788
 21
-0.1185074613531828
 31
0.0
  0
LINE
  5
29D
  8
0
 10
0.0798613221638128
 20
-0.230788163112891
 30
0.0
 11
0.0798613221638128
 21
-0.2448232508365722
 31
0.0
  0
LINE
  5
29E
  8
0
 10
0.0798613221638128
 20
-0.3430688648725991
 30
0.0
 11
0.0798613221638128
 21
-0.3571039525962804
 31
0.0
  0
LINE
  5
29F
  8
0
 10
0.0758512971030905
 20
-0.1185074613531828
 30
0.0
 11
0.0517911467238857
 21
-0.230788163112891
 31
0.0
  0
LINE
  5
2A0
  8
0
 10
0.0588086905857264
 20
-0.2448232508365722
 30
0.0
 11
0.0588086905857264
 21
-0.3430688648725991
 31
0.0
  0
LINE
  5
2A1
  8
0
 10
-0.137682537478892
 20
0.3095627140703863
 30
0.0
 11
-0.137682537478892
 21
0.295527626346705
 31
0.0
  0
LINE
  5
2A2
  8
0
 10
-0.137682537478892
 20
0.4218434158300945
 30
0.0
 11
-0.137682537478892
 21
0.3095627140703863
 31
0.0
  0
LINE
  5
2A3
  8
0
 10
-0.137682537478892
 20
0.4358785035240338
 30
0.0
 11
-0.137682537478892
 21
0.4218434158300945
 31
0.0
  0
LINE
  5
2A4
  8
0
 10
-0.0534720111665463
 20
-0.2448232508365722
 30
0.0
 11
-0.0534720111665463
 21
-0.3430688648725991
 31
0.0
  0
LINE
  5
2A5
  8
0
 10
-0.0705146176839104
 20
-0.1185074613531828
 30
0.0
 11
-0.0464544673047057
 21
-0.230788163112891
 31
0.0
  0
LINE
  5
2A6
  8
0
 10
-0.0745246427446328
 20
-0.3430688648725991
 30
0.0
 11
-0.0745246427446328
 21
-0.3571039525962804
 31
0.0
  0
LINE
  5
2A7
  8
0
 10
-0.0745246427446328
 20
-0.230788163112891
 30
0.0
 11
-0.0745246427446328
 21
-0.2448232508365722
 31
0.0
  0
LINE
  5
2A8
  8
0
 10
-0.0920685023917989
 20
-0.1044723736592434
 30
0.0
 11
-0.0920685023917989
 21
-0.1185074613531828
 31
0.0
  0
LINE
  5
2A9
  8
0
 10
-0.1341737655479717
 20
0.0779837666891292
 30
0.0
 11
-0.1341737655479717
 21
0.0639486789951899
 31
0.0
  0
LINE
  5
2AA
  8
0
 10
-0.0464544673047057
 20
-0.3571039525962804
 30
0.0
 11
-0.0464544673047057
 21
-0.4553495666323073
 31
0.0
  0
LINE
  5
2AB
  8
0
 10
-0.109612362038965
 20
0.0639486789951899
 30
0.0
 11
-0.0735221364775933
 21
-0.1044723736592434
 31
0.0
  0
LINE
  5
2AC
  8
0
 10
-0.109612362038965
 20
0.2042995561725186
 30
0.0
 11
-0.109612362038965
 21
0.0779837666891292
 31
0.0
  0
LINE
  5
2AD
  8
0
 10
-0.109612362038965
 20
0.295527626346705
 30
0.0
 11
-0.109612362038965
 21
0.2464048193435625
 31
0.0
  0
LINE
  5
2AE
  8
0
 10
-0.137682537478892
 20
0.3306153456559081
 30
0.0
 11
-0.109612362038965
 21
0.3306153456559081
 31
0.0
  0
LINE
  5
2AF
  8
0
 10
-0.109612362038965
 20
0.4218434158300945
 30
0.0
 11
-0.109612362038965
 21
0.3095627140703863
 31
0.0
  0
LINE
  5
2B0
  8
0
 10
-0.1517176252025732
 20
0.3095627140703863
 30
0.0
 11
0.1430192168980721
 21
0.3095627140703863
 31
0.0
  0
LINE
  5
2B1
  8
0
 10
-0.137682537478892
 20
0.4499135912477151
 30
0.0
 11
-0.1517176252025732
 21
0.4499135912477151
 31
0.0
  0
LINE
  5
2B2
  8
0
 10
-0.0745246427446328
 20
0.4522393381369573
 30
0.0
 11
-0.0580515822047699
 21
0.5025451702115199
 31
0.0
  0
LINE
  5
2B3
  8
0
 10
-0.2078579760749919
 20
0.3376328894880069
 30
0.0
 11
-0.1517176252025732
 21
0.3376328894880069
 31
0.0
  0
LINE
  5
2B4
  8
0
 10
-0.2078579760749919
 20
0.4218434158300945
 30
0.0
 11
-0.1517176252025732
 21
0.4218434158300945
 31
0.0
  0
LINE
  5
2B5
  8
0
 10
-0.1517176252025732
 20
0.4499135912477151
 30
0.0
 11
-0.1517176252025732
 21
0.3095627140703863
 31
0.0
  0
LINE
  5
2B6
  8
0
 10
-0.2078579760749919
 20
0.4218434158300945
 30
0.0
 11
-0.2078579760749919
 21
0.3376328894880069
 31
0.0
  0
LINE
  5
2B7
  8
0
 10
-0.1938228883587461
 20
0.2464048193435625
 30
0.0
 11
-0.1938228883587461
 21
0.2042995561725186
 31
0.0
  0
LINE
  5
2B8
  8
0
 10
-0.137682537478892
 20
0.4499135912477151
 30
0.0
 11
-0.137682537478892
 21
0.4358785035240338
 31
0.0
  0
LINE
  5
2B9
  8
0
 10
-0.0955772743227191
 20
0.4522393381369573
 30
0.0
 11
-0.0955772743227191
 21
0.4358785035240338
 31
0.0
  0
LINE
  5
2BA
  8
0
 10
-0.0534720111665463
 20
0.5446504333528216
 30
0.0
 11
-0.0534720111665463
 21
0.5025451702115199
 31
0.0
  0
LINE
  5
2BB
  8
0
 10
-0.0534720111665463
 20
0.5446504333528216
 30
0.0
 11
0.0588086905857264
 21
0.5446504333825635
 31
0.0
  0
LINE
  5
2BC
  8
0
 10
-0.0464544673047057
 20
-0.4553495666323073
 30
0.0
 11
0.0517911467238857
 21
-0.4553495666323073
 31
0.0
  0
LINE
  5
2BD
  8
0
 10
-0.0745246427446328
 20
-0.3430688648725991
 30
0.0
 11
0.0798613221638128
 21
-0.3430688648428573
 31
0.0
  0
LINE
  5
2BE
  8
0
 10
0.0798613221638128
 20
-0.3430688648428573
 30
0.0
 11
0.0798613221638128
 21
-0.3571039525962804
 31
0.0
  0
LINE
  5
2BF
  8
0
 10
0.0798613221638128
 20
-0.3571039525962804
 30
0.0
 11
-0.0745246427446328
 21
-0.3571039525962804
 31
0.0
  0
LINE
  5
2C0
  8
0
 10
-0.0745246427446328
 20
-0.3571039525962804
 30
0.0
 11
-0.0745246427446328
 21
-0.343068864902341
 31
0.0
  0
LINE
  5
2C1
  8
0
 10
-0.0745246427446328
 20
-0.230788163112891
 30
0.0
 11
0.0798613221638128
 21
-0.230788163112891
 31
0.0
  0
LINE
  5
2C2
  8
0
 10
0.0798613221638128
 20
-0.230788163112891
 30
0.0
 11
0.0798613221638128
 21
-0.2448232508068303
 31
0.0
  0
LINE
  5
2C3
  8
0
 10
0.0798613221638128
 20
-0.2448232508068303
 30
0.0
 11
-0.0745246427446328
 21
-0.2448232508365722
 31
0.0
  0
LINE
  5
2C4
  8
0
 10
-0.0745246427446328
 20
-0.2448232508365722
 30
0.0
 11
-0.0745246427371973
 21
-0.2307881631426328
 31
0.0
  0
LINE
  5
2C5
  8
0
 10
-0.0920685023917989
 20
-0.1044723736592434
 30
0.0
 11
0.0974051818109788
 21
-0.1044723736592434
 31
0.0
  0
LINE
  5
2C6
  8
0
 10
0.0974051818109788
 20
-0.1044723736592434
 30
0.0
 11
0.0974051818109788
 21
-0.1185074613531828
 31
0.0
  0
LINE
  5
2C7
  8
0
 10
0.0974051818109788
 20
-0.1185074613531828
 30
0.0
 11
-0.0920685023843635
 21
-0.1185074613829247
 31
0.0
  0
LINE
  5
2C8
  8
0
 10
-0.0920685023843635
 20
-0.1185074613829247
 30
0.0
 11
-0.0920685023843635
 21
-0.1044723736889852
 31
0.0
  0
LINE
  5
2C9
  8
0
 10
-0.1341737655479717
 20
0.0779837666891292
 30
0.0
 11
0.1395104449671518
 21
0.0779837666891292
 31
0.0
  0
LINE
  5
2CA
  8
0
 10
0.1395104449671518
 20
0.0779837666891292
 30
0.0
 11
0.1395104449671518
 21
0.0639486789951899
 31
0.0
  0
LINE
  5
2CB
  8
0
 10
0.1395104449671518
 20
0.0639486789951899
 30
0.0
 11
-0.1341737655405362
 21
0.063948678965448
 31
0.0
  0
LINE
  5
2CC
  8
0
 10
-0.1341737655405362
 20
0.063948678965448
 30
0.0
 11
-0.1341737655405362
 21
0.0779837666593873
 31
0.0
  0
LINE
  5
2CD
  8
0
 10
-0.1938228883587461
 20
0.2042995561725186
 30
0.0
 11
0.1991595677704906
 21
0.2042995562022606
 31
0.0
  0
LINE
  5
2CE
  8
0
 10
0.1991595677704906
 20
0.2042995562022606
 30
0.0
 11
0.1991595677704906
 21
0.2464048193435625
 31
0.0
  0
LINE
  5
2CF
  8
0
 10
0.1991595677704906
 20
0.2464048193435625
 30
0.0
 11
-0.1938228883587461
 21
0.2464048193435625
 31
0.0
  0
LINE
  5
2D0
  8
0
 10
-0.1938228883587461
 20
0.2464048193435625
 30
0.0
 11
-0.1938228883513106
 21
0.2042995561725186
 31
0.0
  0
LINE
  5
2D1
  8
0
 10
-0.137682537478892
 20
0.295527626346705
 30
0.0
 11
0.1430192168980721
 21
0.295527626346705
 31
0.0
  0
LINE
  5
2D2
  8
0
 10
0.1430192168980721
 20
0.295527626346705
 30
0.0
 11
0.1430192168980721
 21
0.3095627140703863
 31
0.0
  0
LINE
  5
2D3
  8
0
 10
-0.137682537478892
 20
0.3095627140703863
 30
0.0
 11
-0.137682537478892
 21
0.295527626346705
 31
0.0
  0
LINE
  5
2D4
  8
0
 10
-0.0955772743227191
 20
0.4522393381369573
 30
0.0
 11
0.1009139537418991
 21
0.4522393381369573
 31
0.0
  0
LINE
  5
2D5
  8
0
 10
0.1009139537418991
 20
0.4522393381369573
 30
0.0
 11
0.1009139537418991
 21
0.4358785035240338
 31
0.0
  0
LINE
  5
2D6
  8
0
 10
-0.137682537478892
 20
0.4358785035240338
 30
0.0
 11
0.1430192169055074
 21
0.4358785034942918
 31
0.0
  0
LINE
  5
2D7
  8
0
 10
-0.137682537478892
 20
0.4218434158300945
 30
0.0
 11
0.1430192169055074
 21
0.4218434158300945
 31
0.0
  0
LINE
  5
2D8
  8
0
 10
-0.0580515822047699
 20
0.5025451702115199
 30
0.0
 11
0.06338826162395
 21
0.5025451702115199
 31
0.0
  0
LINE
  5
2D9
  8
0
 10
-0.0600824756409755
 20
0.4963431785465295
 30
0.0
 11
0.0654191550601555
 21
0.4963431785465295
 31
0.0
  0
ENDSEC
  0
EOF
